<svg width="40" height="40" xmlns="http://www.w3.org/2000/svg" p-id="9667" version="1.1" class="icon" t="1736605193230">

 <g>
  <title>Layer 1</title>
  <path stroke="null" id="svg_1" p-id="9668" fill="#1296db" d="m29.01499,14.86965l-5.00484,0l0,-5.97757c0,-1.36496 -1.11393,-2.4632 -2.51026,-2.4632c-1.38065,0 -2.51026,1.09824 -2.51026,2.4632l0,5.97757l-4.72244,0c-1.38065,0 -2.49458,1.08255 -2.51026,2.43182l0,2.19648l19.73696,0l0,-2.1651c0,-1.34927 -1.09824,-2.4632 -2.47889,-2.4632c0.01569,0 0,0 0,0zm3.01232,12.01789c0,4.06349 -0.84721,6.66789 -1.22375,6.66789l-4.78519,0c0.37654,-0.78446 0.65894,-1.60029 0.87859,-2.44751c0.26672,-1.0198 0.39223,-2.07097 0.40792,-3.12214c0.01569,-0.59619 -0.4393,-1.08255 -1.05117,-1.09824c-0.06276,0 -0.12551,0 -0.17258,0.01569c-0.53343,0.10982 -0.90997,0.5805 -0.89428,1.11393c-0.01569,1.96114 -0.56481,3.87522 -1.61598,5.55396l-6.84047,0c0.50205,-0.78446 0.92566,-1.61598 1.27082,-2.47889c0.37654,-0.94135 0.64326,-1.91408 0.80015,-2.90249c0.10982,-0.59619 -0.2824,-1.17669 -0.89428,-1.28651c-0.04707,-0.01569 -0.10982,-0.01569 -0.15689,-0.01569c-0.53343,0.01569 -0.97273,0.40792 -1.05117,0.92566c-0.1412,0.83153 -0.36085,1.63167 -0.67463,2.41613c-0.45499,1.23944 -1.17669,2.38475 -2.10235,3.34179l-5.88343,0c-0.04707,0 -0.07845,-0.04707 -0.07845,-0.09413c0,-0.01569 0,-0.03138 0.01569,-0.03138c1.20806,-1.8827 2.13372,-3.92229 2.7456,-6.05601c0.61188,-2.08666 0.95704,-4.23607 1.03548,-6.41686l19.75264,0c0.40792,1.94546 0.5805,3.93798 0.51774,5.91481z"/>
 </g>
</svg>