<svg width="32" height="32" xmlns="http://www.w3.org/2000/svg" class="icon">

 <g>
  <title>background</title>
  <rect fill="none" id="canvas_background" height="34" width="34" y="-1" x="-1"/>
 </g>
 <g>
  <title>Layer 1</title>
  <g stroke="null" id="svg_4">
   <path stroke="null" id="svg_1" fill="#C0C4CC" d="m12.695337,12.503487l0,-2.797399a2.84985,2.84985 0 0 1 2.482691,-2.814882l0,-6.626338l-2.482691,0a8.199875,8.199875 0 0 0 -8.287293,8.112456l0,1.993147c0.174837,0 0.174837,0.157354 0.332191,0.157354a27.694246,27.694246 0 0 0 7.955102,1.975663l0,0zm6.626338,-12.238619l-2.482691,0l0,6.626338a3.007203,3.007203 0 0 1 2.482691,2.814882l0,2.657529a24.232465,24.232465 0 0 0 8.26981,-2.167984l0,-1.643472a8.199875,8.199875 0 0 0 -8.112456,-8.287293l-0.157354,0zm-0.174837,14.58144a2.657529,2.657529 0 0 1 -2.500175,2.902301l-0.97909,0a2.814882,2.814882 0 0 1 -2.814882,-2.867333l0,-0.629415a30.841319,30.841319 0 0 1 -8.287293,-2.063081l0,8.444647a10.874887,10.874887 0 0 0 10.612631,11.102176l1.153927,0a11.102176,11.102176 0 0 0 11.102176,-11.102176l0,-8.444647a30.683966,30.683966 0 0 1 -8.287293,2.063081l0,0.664382l0,-0.069935zm-5.629765,-5.210155l0,4.965382a2.01063,2.01063 0 0 0 1.993146,1.993146l0.821736,0a2.01063,2.01063 0 0 0 2.063081,-1.923212l0,-4.965382a2.028114,2.028114 0 0 0 -2.063081,-1.993146l-0.821736,0a2.1505,2.1505 0 0 0 -1.993146,1.993146l0,-0.069935z"/>
   <path stroke="null" id="svg_2" fill="#C0C4CC" d="m12.695337,12.503487l0,-2.797399a2.84985,2.84985 0 0 1 2.482691,-2.814882l0,-6.626338l-2.482691,0a8.199875,8.199875 0 0 0 -8.287293,8.112456l0,1.993147c0.174837,0 0.174837,0.157354 0.332191,0.157354a27.694246,27.694246 0 0 0 7.955102,1.975663l0,0zm6.626338,-12.238619l-2.482691,0l0,6.626338a3.007203,3.007203 0 0 1 2.482691,2.814882l0,2.657529a24.232465,24.232465 0 0 0 8.26981,-2.167984l0,-1.643472a8.199875,8.199875 0 0 0 -8.112456,-8.287293l-0.157354,0z"/>
   <path stroke="null" id="svg_3" fill="#005FBF" d="m12.595859,9.337094l0,6.431378a2.845035,2.631018 0 0 0 2.796402,2.586044l1.142877,0a2.845035,2.631018 0 0 0 2.869351,-2.586044l0,-6.431378a2.820718,2.608531 0 0 0 -2.869351,-2.563556l-1.142877,0a2.990934,2.765942 0 0 0 -2.796402,2.563556z"/>
  </g>
 </g>
</svg>