<svg width="32" height="32" xmlns="http://www.w3.org/2000/svg" stroke="null" style="vector-effect: non-scaling-stroke;" class="icon">

 <g stroke="null">
  <title stroke="null">background</title>
  <rect stroke="null" fill="none" id="canvas_background" height="34" width="34" y="-1" x="-1"/>
 </g>
 <g stroke="null">
  <title stroke="null">Layer 1</title>
  <path stroke="null" id="svg_5" class="selected" fill="#005bc4" d="0"/>
  <path id="svg_9" d="m311.199994,132.711108c0,0 0.444444,71.11111 0.444444,71.11111l-0.444444,-71.11111z" fill-opacity="null" stroke-opacity="null" stroke-width="null" stroke="null" fill="#005bc4"/>
  <polyline stroke-linecap="round" id="svg_11" points="341.422215778298,162.93333022726912 341.8666602161196,162.93333022726912 " stroke-opacity="null" stroke-width="NaN" stroke="null" fill="none"/>
  <path d="m372.088867,163.82222c0.444458,0.444443 1.367188,0.718796 1.777802,0.888885c0.580688,0.240524 0.888885,0.888885 1.333313,1.333344l0,0.444443" id="svg_12" stroke-opacity="null" stroke-width="NaN" stroke="null" fill="none"/>
  <path d="m344.533325,159.377777c0.444458,0.888885 1.026672,1.483307 2.222229,2.222214c1.604004,0.991333 3.111115,2.666672 4.888885,4c1.777771,1.333344 3.483429,3.039001 4.888885,4.444458c1.405457,1.405457 2.760742,1.650711 4,2.666656c0.972137,0.796967 1.519501,1.075043 2.222229,1.777786c0.702698,0.702728 1.075043,0.6306 1.777771,1.333328c0.702728,0.702728 0.971558,1.196686 1.777771,1.777771c0.509918,0.367508 1.699768,0.932404 2.222229,1.777786c0.467316,0.756134 1.25531,0.932388 1.777771,1.777771c0.233643,0.378067 0.888885,1.333328 1.333344,1.777786c0.444427,0.444443 1.082062,1.844879 2.222229,2.666656c0.360535,0.259857 1.333313,0.444443 1.777771,0.888901c0.444427,0.444443 1.367188,1.163254 1.777771,1.333328c1.161377,0.481064 1.367188,1.607697 1.777771,1.777771c1.742096,0.721603 1.777802,1.777786 2.666687,2.222229c0.888885,0.444443 0.888885,0.888885 1.333313,1.333328l0.444458,0" id="svg_13" stroke-opacity="null" stroke-width="NaN" stroke="null" fill="none"/>
  <path stroke="null" id="svg_14" d="m311.199994,132.711108l-0.088889,70.844443l25.333333,26.666666" opacity="0.5" stroke-opacity="null" stroke-width="NaN" fill="none"/>
  <g id="svg_16">
   <g stroke="null" id="svg_17">
    <path stroke="null" id="svg_1" fill="#cccccc" d="m12.689625,12.554257l0,-2.798285a2.850753,2.850753 0 0 1 2.483477,-2.815774l0,-6.628436l-2.483477,0a8.202472,8.202472 0 0 0 -8.289918,8.115024l0,1.993779c0.174892,0 0.174892,0.157403 0.332297,0.157403a27.703017,27.703017 0 0 0 7.957621,1.976288l0,0zm6.628437,-12.242495l-2.483477,0l0,6.628436a3.008156,3.008156 0 0 1 2.483477,2.815774l0,2.658371a24.24014,24.24014 0 0 0 8.272429,-2.168671c0,-0.547998 0,-1.095994 0,-1.643992a8.202472,8.202472 0 0 0 -8.115025,-8.289918l-0.157403,0zm-0.174892,14.586058a2.65837,2.65837 0 0 1 -2.500967,2.90322l-0.979399,0a2.815774,2.815774 0 0 1 -2.815774,-2.868241l0,-0.629614a30.851088,30.851088 0 0 1 -8.289919,-2.063735l0,8.447322a10.878331,10.878331 0 0 0 10.615992,11.105692l1.154293,0a11.105692,11.105692 0 0 0 11.105692,-11.105692l0,-8.447322a30.693683,30.693683 0 0 1 -8.289918,2.063735l0,0.664593l0,-0.069957zm-5.631548,-5.211806l0,4.966956a2.011267,2.011267 0 0 0 1.993778,1.993778l0.821996,0a2.011267,2.011267 0 0 0 2.063735,-1.923821l0,-4.966955a2.028756,2.028756 0 0 0 -2.063735,-1.993778l-0.821996,0a2.151181,2.151181 0 0 0 -1.993778,1.993778l0,-0.069957z"/>
    <path stroke="null" id="svg_15" d="m16.755135,3.518358l0.061511,3.419787c2.000894,0.280612 2.528749,2.211526 2.475295,2.779415l0.047866,2.652931c-0.050247,0.028195 4.349898,-0.315258 8.236016,-2.17616l0.024469,-1.81994c-0.217748,-7.007491 -6.943609,-8.263833 -7.974778,-8.161265l-2.888586,0.023088z" stroke-opacity="null" stroke-width="null" fill="#005fbf"/>
   </g>
  </g>
 </g>
</svg>