<svg width="39.99999999999999" height="39.99999999999999" xmlns="http://www.w3.org/2000/svg" p-id="9853" version="1.1" class="icon" t="1732360840352">

 <g>
  <title>Layer 1</title>
  <path stroke="null" id="svg_1" fill="#1296db" p-id="9854" d="m32.21346,11.20601l-5.37664,-5.50938q-0.56389,-0.56389 -1.32743,-0.56389l-10.51965,0q-0.86336,0 -1.52708,0.59788q-0.56389,0.49805 -0.76354,1.22761l-1.99115,0q-1.42726,0 -2.43929,1.02903t-1.01204,2.52213l0,20.8078q0,1.46018 1.01204,2.50513t2.43929,1.04496l16.85842,0q1.42726,0 2.43929,-1.04496t1.01204,-2.50513l0,-2.09097q0.76354,-0.19965 1.2446,-0.84637t0.48106,-1.47717l0,-14.36921q0,-0.79646 -0.53097,-1.32743l0.00106,0zm-5.57522,-5.34266l-0.09982,-0.09982l0.09982,0.09982zm3.25275,5.90655l-2.1908,-2.25664l2.1908,2.25664zm-4.18195,-3.88248l3.58407,3.65098l-3.58407,0l0,-3.65098zm-0.23257,-0.6308zm-15.66373,27.2124q0.13274,0.03292 0.16566,0.0669q-0.0669,-0.03292 -0.16566,-0.0669zm0.89628,0.13274q-0.19965,0 -0.39823,-0.03292q0.16566,0.03292 0.39823,0.03292zm18.02019,-3.28567q0,0.49805 -0.33239,0.84637t-0.82938,0.34832l-16.85842,0q-0.46513,0 -0.81345,-0.34832t-0.34832,-0.84637l0,-20.8078q0,-0.49805 0.34832,-0.84637t0.81345,-0.34832l1.92531,0l0,17.62196q0,0.99611 0.69664,1.69274t1.65982,0.69664l13.73948,0l0,1.99115l-0.00106,0zm1.72566,-4.41345q0,0.0669 -0.0669,0.0669l-15.39824,0q-0.0669,0 -0.0669,-0.0669l0,-19.34762q0,-0.0669 0.0669,-0.0669l8.32992,0l0,5.20991q0,0.49805 0.33239,0.82938t0.79646,0.33239l6.00638,0l0,13.04178l0,0.00106zm0.33133,2.1239q0.13274,-0.03292 0.29841,-0.0669q-0.16566,0.03292 -0.29841,0.0669zm-8.09735,-5.60814l-3.55115,0q-0.49805,0 -0.82938,0.34832t-0.33239,0.82938t0.33239,0.82938t0.82938,0.34832l3.55115,0q0.46513,0 0.81345,-0.34832t0.34832,-0.82938t-0.34832,-0.82938t-0.81345,-0.34832zm3.55115,-3.6839l-7.1023,0q-0.46513,0 -0.81345,0.34832t-0.34832,0.82938t0.34832,0.82938t0.81345,0.34832l7.1023,0q0.46513,0 0.79646,-0.34832t0.33239,-0.82938t-0.33239,-0.82938t-0.79646,-0.34832zm-7.99753,1.19469q0,0.13274 0.03292,0.26549q-0.03292,-0.13274 -0.03292,-0.26549zm7.99753,-0.9292zm0.39823,1.72566l0.13274,-0.0669l-0.13274,0.0669zm-8.66124,-4.49629q0,0.48106 0.34832,0.82938t0.81345,0.34832l7.1023,0q0.46513,0 0.79646,-0.34832t0.33239,-0.82938t-0.33239,-0.82938t-0.79646,-0.34832l-7.1023,0q-0.46513,0 -0.81345,0.34832t-0.34832,0.82938zm0.26549,0.04991z"/>
 </g>
</svg>