<?xml version="1.0" standalone="no"?><!DOCTYPE svg PUBLIC "-//W3C//DTD SVG 1.1//EN" "http://www.w3.org/Graphics/SVG/1.1/DTD/svg11.dtd"><svg t="1732095120494" class="icon" viewBox="0 0 1024 1024" version="1.1" xmlns="http://www.w3.org/2000/svg" p-id="126814" width="32" height="32" xmlns:xlink="http://www.w3.org/1999/xlink"><path d="M512 20.300229c-272.730965 0-493.822233 221.091268-493.822233 493.822234s221.091268 493.822233 493.822233 493.822233 493.822233-221.091268 493.822233-493.822233-221.091268-493.822233-493.822233-493.822234z m245.208281 247.835513h-34.251315c-29.580682 0-52.933851 23.35317-52.933851 52.933851v52.933852c0 37.365071-20.239414 71.616387-49.820096 88.742044-17.125658 10.898146-28.023804 29.580682-28.023803 51.376974s10.898146 40.478827 28.023803 51.376973c29.580682 17.125658 49.820095 51.376973 49.820096 88.742044v52.933852c0 29.580682 23.35317 52.933851 52.933851 52.933851h34.251315v34.251315H266.791719v-34.251315h34.251315c29.580682 0 52.933851-23.35317 52.933851-52.933851v-52.933852c0-37.365071 20.239414-70.059509 49.820096-88.742044 17.125658-10.898146 28.023804-29.580682 28.023803-51.376973s-10.898146-40.478827-28.023803-51.376974c-29.580682-17.125658-49.820095-51.376973-49.820096-88.742044v-52.933852c0-29.580682-23.35317-52.933851-52.933851-52.933851H266.791719v-34.251315H757.208281v34.251315zM389.785079 321.069593v52.933852c0 12.455024 3.113756 23.35317 9.341268 34.251315h227.304184c6.227512-9.341268 9.341268-21.796292 9.341268-34.251315v-52.933852c0-20.239414 6.227512-38.921949 17.125658-52.933851h-280.238036c10.898146 15.56878 17.125658 32.694438 17.125658 52.933851z m168.142821 194.609748H467.628978c0 31.13756-15.56878 60.718241-42.035706 77.843898-1.556878 0-1.556878 1.556878-3.113756 1.556878-20.239414 12.455024-32.694438 34.251315-32.694437 59.161363v34.251316h245.98672v-34.251316c0-23.35317-12.455024-46.706339-32.694437-59.161363-1.556878 0-3.113756-1.556878-3.113756-1.556878-26.466926-18.682536-42.035705-48.263217-42.035706-77.843898z" fill="#F1C15D" p-id="126815"></path></svg>