<svg width="40" height="40" xmlns="http://www.w3.org/2000/svg" p-id="7695" version="1.1" class="icon" t="1732360526907">

 <g>
  <title>Layer 1</title>
  <g stroke="null" id="svg_5">
   <path stroke="null" id="svg_1" p-id="7696" fill="#d81e06" d="m30.77905,14.85166c-0.80843,0 -1.34738,0.51483 -1.34738,1.28709l0,15.18761c0,1.02967 -0.80843,1.5445 -1.61686,1.5445l-15.62962,0c-1.0779,0 -1.61686,-0.77225 -1.61686,-1.5445l0,-15.18761c0,-0.77225 -0.53895,-1.28709 -1.34738,-1.28709s-1.34738,0.51483 -1.34738,1.28709l0,15.18761c0,2.31675 1.88633,4.11867 4.31162,4.11867l15.36014,0c2.42529,0 4.31162,-1.80192 4.31162,-4.11867l0,-15.18761c0.26948,-0.77225 -0.26948,-1.28709 -1.0779,-1.28709z"/>
   <path stroke="null" id="svg_2" p-id="7697" fill="#d81e06" d="m17.84419,29.0096l0,-12.87085c0,-0.77225 -0.53895,-1.28709 -1.0779,-1.28709s-1.61686,0.51483 -1.61686,1.28709l0,12.87085c0,0.77225 0.53895,1.28709 1.34738,1.28709s1.34738,-0.51483 1.34738,-1.28709z"/>
   <path stroke="null" id="svg_3" p-id="7698" fill="#d81e06" d="m24.85057,29.0096l0,-12.87085c0,-0.77225 -0.80843,-1.28709 -1.61686,-1.28709s-1.0779,0.51483 -1.0779,1.28709l0,12.87085c0,0.77225 0.53895,1.28709 1.0779,1.28709s1.61686,-0.51483 1.61686,-1.28709z"/>
   <path stroke="null" id="svg_4" p-id="7699" fill="#d81e06" d="m33.47381,9.70332l-6.73691,0l0,-1.80192c0,-1.80192 -1.61686,-3.34642 -3.50319,-3.34642l-6.46743,0c-1.88633,0 -3.50319,1.5445 -3.50319,3.34642l0,1.80192l-6.73691,0c-0.80843,0 -1.34738,0.51483 -1.34738,1.28709s0.53895,1.28709 1.34738,1.28709l26.94762,0c0.80843,0 1.34738,-0.51483 1.34738,-1.28709s-0.53895,-1.28709 -1.34738,-1.28709zm-17.51595,-1.80192c0,-0.51483 0.26948,-0.77225 0.80843,-0.77225l6.46743,0c0.53895,0 0.80843,0.25742 0.80843,0.77225l0,1.80192l-8.08429,0l0,-1.80192z"/>
  </g>
 </g>
</svg>