<?xml version="1.0" standalone="no"?><!DOCTYPE svg PUBLIC "-//W3C//DTD SVG 1.1//EN" "http://www.w3.org/Graphics/SVG/1.1/DTD/svg11.dtd"><svg t="1715874442907" class="icon" viewBox="0 0 1024 1024" version="1.1" xmlns="http://www.w3.org/2000/svg" p-id="4695" width="32" height="32" xmlns:xlink="http://www.w3.org/1999/xlink"><path d="M769.42392 200.54607l54.032558 54.032557-284.223682 284.223681-54.032557-54.032557z" fill="#005FBF" p-id="4696"></path><path d="M834.496318 448.827861h-76.41791V265.934328h-182.893532v-76.41791h259.311442zM464.633632 1024H85.600796C38.221692 1024 0.012736 985.791045 0.012736 938.41194v-379.032836c0-47.379104 38.208955-85.58806 85.58806-85.588059h379.032836c47.379104 0 85.58806 38.208955 85.58806 85.588059v379.032836c0 47.379104-38.208955 85.58806-85.58806 85.58806z m-379.032836-473.791045c-5.094527 0-9.170149 4.075622-9.170149 9.170149v379.032836c0 5.094527 4.075622 9.170149 9.170149 9.17015h379.032836c5.094527 0 9.170149-4.075622 9.170149-9.17015v-379.032836c0-5.094527-4.075622-9.170149-9.170149-9.170149H85.600796zM0.012736 354.069652h76.417911v63.172139h-76.417911zM0.012736 227.725373h76.417911v63.172139h-76.417911zM947.594826 354.069652h76.41791v63.172139h-76.41791zM947.594826 227.725373h76.41791v63.172139h-76.41791zM947.594826 606.758209h76.41791V669.930348h-76.41791zM947.594826 733.102488h76.41791v63.172139h-76.41791zM947.594826 480.41393h76.41791v63.17214h-76.41791zM76.430647 164.553234h-76.417911V0h164.553234v76.41791H76.430647zM227.738109 0h63.17214v76.41791H227.738109zM354.082388 0h63.172139v76.41791H354.082388zM480.426667 0h63.172139v76.41791H480.426667zM606.770945 0H669.943085v76.41791h-63.17214zM733.115224 0h63.172139v76.41791h-63.172139zM606.770945 947.58209H669.943085v76.41791h-63.17214zM733.115224 947.58209h63.172139v76.41791h-63.172139zM1024.012736 164.553234h-76.41791V76.41791h-88.135324v-76.41791h164.553234zM1024.012736 1024h-164.553234v-76.41791h88.135324v-88.135324h76.41791z" fill="#005FBF" p-id="4697"></path></svg>