<?xml version="1.0" standalone="no"?><!DOCTYPE svg PUBLIC "-//W3C//DTD SVG 1.1//EN" "http://www.w3.org/Graphics/SVG/1.1/DTD/svg11.dtd"><svg t="1715186731764" class="icon" viewBox="0 0 1024 1024" version="1.1" xmlns="http://www.w3.org/2000/svg" p-id="9674" width="32" height="32" xmlns:xlink="http://www.w3.org/1999/xlink"><path d="M802.24 0a12.8 12.8 0 0 1 7.424 2.368l208.96 149.312a12.8 12.8 0 0 1 0 20.8l-208.96 149.248a12.8 12.8 0 0 1-20.224-10.368v-102.4H530.304c-7.424 0-15.488 8.128-17.152 20.544l-0.32 4.864v506.368c0 13.44 7.168 23.04 14.72 25.024l2.752 0.384h259.072V664.32a12.8 12.8 0 0 1 20.224-10.432l208.96 149.312a12.8 12.8 0 0 1 0 20.8l-208.96 149.248a12.8 12.8 0 0 1-20.224-10.368v-103.808H530.304c-59.712 0-106.496-49.856-110.08-110.72l-0.256-7.552-0.064-206.72H270.72a139.328 139.328 0 1 1 0-92.928h149.248v-206.72c0-61.568 44.416-113.92 103.04-118.016l7.36-0.256h259.008L789.44 12.8c0-7.04 5.76-12.8 12.8-12.8z" fill="#E63C1E" p-id="9675"></path></svg>