<?xml version="1.0" standalone="no"?><!DOCTYPE svg PUBLIC "-//W3C//DTD SVG 1.1//EN" "http://www.w3.org/Graphics/SVG/1.1/DTD/svg11.dtd"><svg t="1715188108557" class="icon" viewBox="0 0 1024 1024" version="1.1" xmlns="http://www.w3.org/2000/svg" p-id="32626" width="32" height="32" xmlns:xlink="http://www.w3.org/1999/xlink"><path d="M490.666667 533.333333H108.8c-23.466667 0-42.666667-19.2-42.666667-42.666666V64c0-36.266667 27.733333-64 64-64H490.666667c36.266667 0 64 27.733333 64 64v405.333333c0 34.133333-27.733333 64-64 64zM151.466667 448H469.333333V85.333333H151.466667v362.666667z" p-id="32627" fill="#E63C1E"></path><path d="M893.866667 620.8H533.333333c-36.266667 0-64-27.733333-64-64v-426.666667c0-23.466667 19.2-42.666667 42.666667-42.666666h381.866667c36.266667 0 64 27.733333 64 64v405.333333c0 36.266667-29.866667 64-64 64z m-339.2-85.333333h317.866666v-362.666667H554.666667v362.666667zM108.8 1024c-23.466667 0-42.666667-19.2-42.666667-42.666667V490.666667c0-23.466667 19.2-42.666667 42.666667-42.666667s42.666667 19.2 42.666667 42.666667v490.666666c0 23.466667-19.2 42.666667-42.666667 42.666667z" p-id="32628" fill="#E63C1E"></path></svg>