<?xml version="1.0" standalone="no"?><!DOCTYPE svg PUBLIC "-//W3C//DTD SVG 1.1//EN" "http://www.w3.org/Graphics/SVG/1.1/DTD/svg11.dtd"><svg t="1715188707419" class="icon" viewBox="0 0 1024 1024" version="1.1" xmlns="http://www.w3.org/2000/svg" p-id="54241" width="32" height="32" xmlns:xlink="http://www.w3.org/1999/xlink"><path d="M63.859566 651.483429a41.545143 41.545143 0 0 1-50.541715-27.867429A337.334857 337.334857 0 0 1 0.005851 527.725714v-0.438857a352.182857 352.182857 0 0 1 106.788572-252.854857 364.909714 364.909714 0 0 1 256.585143-104.813714h383.561143v-71.68c0-22.966857 16.018286-31.524571 35.547428-19.090286l176.274286 111.323429a24.137143 24.137143 0 0 1-0.438857 44.544l-175.542857 106.496c-19.894857 12.214857-36.132571 3.291429-36.132572-19.602286v-71.168H364.549851a277.284571 277.284571 0 0 0-271.579428 353.426286 40.228571 40.228571 0 0 1-28.745143 47.469714z m946.907428-250.953143a353.572571 353.572571 0 0 1-93.549714 349.037714 364.763429 364.763429 0 0 1-256.658286 104.594286H276.924709v71.972571c0 22.820571-16.018286 31.378286-35.693715 19.163429L65.24928 833.828571a24.137143 24.137143 0 0 1 0.438857-44.544l175.542857-106.496c19.894857-12.141714 36.571429-3.291429 36.571429 19.602286v71.606857h382.390857a280.137143 280.137143 0 0 0 281.746286-277.650285 274.578286 274.578286 0 0 0-10.752-76.068572 38.985143 38.985143 0 0 1 8.557714-33.353143 42.276571 42.276571 0 0 1 32.036571-14.994285 41.033143 41.033143 0 0 1 39.424 28.379428z m0 0" fill="#E63C1E" p-id="54242"></path><path d="M717.390994 485.741714l-155.794285-128.219428a28.745143 28.745143 0 0 0-36.571429 44.397714l98.304 80.969143H324.613851a28.818286 28.818286 0 1 0 0 57.563428h293.302858L524.440137 621.933714a28.818286 28.818286 0 0 0 37.814857 43.373715l155.794286-135.68a28.818286 28.818286 0 0 0-0.585143-43.885715z" fill="#E63C1E" p-id="54243"></path></svg>