<svg width="20" height="20" xmlns="http://www.w3.org/2000/svg" p-id="23873" version="1.1" class="icon" t="1733575640282">

 <g>
  <title>Layer 1</title>
  <g stroke="null" id="svg_8">
   <g stroke="null" id="svg_6">
    <path stroke="null" id="svg_2" p-id="23875" fill="#000000" d="m12.11823,7.13922l-10.14387,0c-0.79702,0 -1.44912,0.6201 -1.44912,1.37799l0,9.64596c0,0.7579 0.65211,1.37799 1.44912,1.37799l10.14387,0c0.79702,0 1.44912,-0.6201 1.44912,-1.37799l0,-9.64596c0,-0.7579 -0.65211,-1.37799 -1.44912,-1.37799zm0,11.02396l-10.14387,0l0,-9.64596l10.14387,0l0,9.64596z"/>
    <path stroke="null" id="svg_5" d="m1.77546,8.43604l11.04371,0l0,1.69154l-11.04371,0l0,-1.69154z" fill="#000000"/>
   </g>
   <g stroke="null" id="svg_7">
    <path stroke="null" id="svg_1" p-id="23874" fill="#000000" d="m5.76574,0.45883c-0.94249,0 -1.71363,0.72071 -1.71363,1.60158l0.00001,7.88331l8.2066,0.02187l-0.02226,4.78427l5.52468,0.12325c0.94249,0 1.71363,-0.72071 1.71363,-1.60159l0,-11.21111c0,-0.88087 -0.77114,-1.60158 -1.71363,-1.60158m0,12.81269l-5.52551,0.01541l0.02082,-3.37401l-6.51151,-0.01302l0.02081,-7.83949l11.99539,0l0,11.21111z"/>
    <path stroke="null" id="svg_4" d="m5.41483,1.87424l12.9708,0l0,1.87037l-12.9708,0l0,-1.87037z" fill="#000000"/>
    <path stroke="null" id="svg_9" d="m12.08295,14.64427" opacity="NaN" fill="#000000"/>
   </g>
  </g>
 </g>
</svg>