<svg width="80" height="80" xmlns="http://www.w3.org/2000/svg">
 <g>
  <title>Layer 1</title>
  <!-- Created with Method Draw - http://github.com/duopixel/Method-Draw/ -->
  <g stroke="null">
   <path stroke="null" data-spm-anchor-id="a313x.search_index.0.i27.6ab53a81Gb81DZ" p-id="22890" fill="#1296DB" d="m2.85999,40.00048c0,20.51129 16.62823,37.13952 37.14049,37.13952c20.51129,0 37.13952,-16.62823 37.13952,-37.13952c0,-20.51226 -16.62823,-37.14049 -37.13952,-37.14049c-20.51226,0.00097 -37.14049,16.6292 -37.14049,37.14049zm0,0"/>
   <path stroke="null" p-id="22891" fill="#F6F6F6" d="m39.39578,15.41814c-7.77289,0.2161 -13.26266,4.63796 -14.21041,11.09098c-0.18994,2.08834 0.85375,3.227 3.13106,3.41596c1.13769,0.18994 2.08737,-0.66381 2.84615,-2.56222c1.13865,-3.98578 3.88693,-5.97915 8.25743,-5.97915c5.31243,0.37987 8.15955,3.03609 8.54233,7.97155c0,4.55559 -3.0923,5.29886 -4.77266,6.673c-2.12807,1.74045 -3.51965,3.50706 -5.22424,6.50051c-1.43131,2.51473 -1.67843,7.89596 -1.67843,7.89596c0,2.27731 1.04078,3.41693 3.13106,3.41693c1.8955,0 2.94209,-1.13865 3.133,-3.41693c0,0 0.25099,-6.03923 2.68819,-8.70901c2.76378,-3.0264 9.3641,-5.14866 9.55307,-12.9293c-0.75684,-8.16246 -5.34053,-13.02718 -15.37329,-13.37023l-0.02326,0.00194zm0.02423,41.29391c-2.18815,0 -3.96252,1.77436 -3.96252,3.96252c0,2.18912 1.77339,3.96349 3.96252,3.96349s3.96349,-1.77436 3.96349,-3.96349c0,-2.18719 -1.77436,-3.96252 -3.96349,-3.96252zm0,0"/>
  </g>
 </g>

</svg>