<svg width="44" height="44" xmlns="http://www.w3.org/2000/svg" p-id="1488" version="1.1" class="icon" t="1732278933133">

 <g>
  <title>Layer 1</title>
  <path stroke="null" id="svg_1" fill="#1296db" data-spm-anchor-id="a313x.search_index.0.i0.6dd53a81sFEWXL" p-id="1489" d="m30.37532,22.94503c-0.28215,-1.06182 -0.46289,-1.94261 -0.97155,-2.92001c-0.45316,-0.87075 -1.30617,-1.51495 -1.49055,-2.52786c-0.20215,-1.10403 0.31544,-2.37465 0.4576,-3.4742c0.16216,-1.24619 -0.13995,-2.26133 -1.06626,-3.14325c-0.18215,-0.17323 -0.83743,-0.86183 -1.17733,-0.68859c0,0 -1.89921,2.88554 -2.49898,2.90775c0,0 1.06626,-1.83264 0.40651,-4.47823c-0.65975,-2.65229 -4.33165,-3.8585 -5.65334,-3.01438c0,0 0.64198,0.30211 1.21065,1.4483c0.56864,1.14623 0.34206,3.78964 0.14439,4.22281c-0.19992,0.42873 -1.17067,3.0721 -2.67454,2.09695c-1.5105,-0.97963 -2.44793,-0.19992 -2.44793,-0.19992s0.9974,0.2288 1.10847,1.23505c0.09108,0.82191 -0.00666,1.69491 -0.55757,2.34578c-0.31321,0.36871 -0.71751,0.58641 -1.06845,0.90407c-1.25952,1.13735 -2.1272,3.52244 0.00088,5.18844c1.04179,0.81525 2.61216,0.48042 3.3355,0.32922c0.72334,-0.1512 0.77088,-1.11532 0.88195,-1.51481c0.11107,-0.39949 0.41318,-1.48829 0.88189,-2.09695c1.17285,-1.52824 2.13471,-2.02364 2.23908,-4.60929c0,0 0.72417,0.49315 0.93742,1.46389c0.20215,0.92628 -0.02221,1.87255 -0.5087,2.67006c-0.30429,0.49755 -0.47534,1.10177 -0.36653,1.68599c0.07775,0.41762 0.42873,1.26837 0.94853,1.28614c0.65086,0.02444 1.57052,0.36875 2.1236,-2.00365c0.0311,-0.1355 0.53535,0.27989 0.58644,0.33765c0.40429,0.45538 0.40302,1.19205 0.5398,1.66822c0.13677,0.47617 -0.44166,1.31842 4.14098,1.17847m6.60147,2.08914l0,11.10676l-28.87755,0l0,-11.10676l28.87755,0m0,-2.22134l-28.87755,0c-1.22617,0 -2.22134,0.99518 -2.22134,2.22138l0,11.10672c0,1.22617 0.99518,2.22134 2.22138,2.22134l28.87751,0c1.22617,0 2.22134,-0.99518 2.22134,-2.22138l0,-11.10669c0,-1.22617 -0.99518,-2.22134 -2.22138,-2.22134l0.00003,-0.00003zm0,6.66403l-28.87755,0l0,-2.22134l28.87755,0l0,2.22138l0,-0.00003zm0,4.44272l-28.87755,0l0,-2.22138l28.87755,0l0,2.22138zm-22.21348,-6.66407l-2.22138,0l0,-2.22134l2.22138,0l0,2.22138l0,-0.00003zm6.664,4.44272l-2.22138,0l0,-2.22138l2.22138,0l0,2.22138zm13.3281,0l-2.22138,0l0,-2.22138l2.22138,0l0,2.22138zm-6.66403,-4.44272l-2.22131,0l0,-2.22134l2.22138,0l0,2.22138l-0.00007,-0.00003zm-13.32807,8.88541l-2.22138,0l0,-2.22138l2.22138,0l0,2.22138zm13.32807,0l-2.22131,0l0,-2.22138l2.22138,0l0,2.22138l-0.00007,0z"/>
 </g>
</svg>