<svg width="40" height="40" xmlns="http://www.w3.org/2000/svg" data-spm-anchor-id="a313x.search_index.0.i54.308b3a81PIZXmY" p-id="43047" version="1.1" class="icon" t="1732467624082">

 <g>
  <title>Layer 1</title>
  <path id="svg_1" data-spm-anchor-id="a313x.search_index.0.i55.308b3a81PIZXmY" fill="#515151" p-id="43048" d="m704,328a72,72 0 1 0 144,0a72,72 0 1 0 -144,0z"/>
  <g id="svg_4">
   <path stroke="null" id="svg_2" fill="#707070" data-spm-anchor-id="a313x.search_index.0.i50.308b3a81PIZXmY" p-id="43049" d="m34.61489,8.07771a0.95829,0.9477 0 0 0 -0.65739,-0.32316l-13.66135,-0.94485a0.94487,0.93443 0 0 0 -0.81454,0.35254l-2.76083,3.40128a0.95829,0.9477 0 0 0 0.02012,1.21116l4.3765,5.03321l-4.41579,5.76484l1.09245,-5.13462a0.95829,0.9477 0 0 0 -0.33348,-0.93064l-5.73344,-4.61244l2.38422,-3.72255a0.95829,0.9477 0 0 0 -0.87683,-1.45187l-7.19291,0.49659a0.95829,0.9477 0 0 0 -0.88929,1.01214l1.67125,23.63365a0.9602,0.94959 0 0 0 1.02728,0.87946l5.28592,-0.39045c0.52802,-0.03886 0.92379,-0.49375 0.88354,-1.01498s-0.49639,-0.91927 -1.02728,-0.87472l-4.32571,0.31937l-0.19262,-2.73979l3.75265,-0.37244a0.95829,0.9477 0 0 0 0.85863,-1.03773a0.96308,0.95243 0 0 0 -1.04933,-0.84914l-3.69516,0.36771l-1.21032,-17.10781l4.34679,-0.30042l-1.82554,2.84972a0.95829,0.9477 0 0 0 0.20507,1.24243l5.94138,4.77828l-1.75942,8.27149a0.92571,0.91547 0 0 0 0.02204,0.43689a0.9487,0.93822 0 0 0 0.04216,0.32696l1.54284,4.57737a0.95733,0.94675 0 0 0 0.82221,0.64443l15.66513,1.40828a0.9602,0.94959 0 0 0 1.04358,-0.87757l1.6703,-23.63459a0.9602,0.94959 0 0 0 -0.23286,-0.68803zm-2.96207,18.68288l-12.3552,-1.1742a0.94391,0.93348 0 0 0 -1.04549,0.85198a0.95829,0.9477 0 0 0 0.86246,1.03394l12.40504,1.17893l-0.18782,2.65165l-14.06671,-1.26517l-1.1854,-3.51595l7.03192,-9.18128a0.95637,0.9458 0 0 0 -0.03737,-1.19031l-4.36117,-5.01521l1.94916,-2.40051l12.20571,0.84345l-1.21511,17.18268z"/>
   <path id="svg_3" d="m27.85729,15.34793c-0.92944,0 -1.68229,-0.75285 -1.68229,-1.68229c0,-0.92944 0.75285,-1.68229 1.68229,-1.68229c0.92944,0 1.68229,0.75285 1.68229,1.68229c0,0.92944 -0.75285,1.68229 -1.68229,1.68229z" opacity="undefined" stroke="null" fill="#707070"/>
  </g>
 </g>
</svg>