<svg width="80" height="80" xmlns="http://www.w3.org/2000/svg">
 <g>
  <title>Layer 1</title>
  <!-- Created with Method Draw - http://github.com/duopixel/Method-Draw/ -->
  <g id="svg_1" stroke="null">
   <g id="svg_2" stroke="null">
    <title stroke="null">background</title>
    <rect fill="none" id="svg_6" height="66" width="66" y="7" x="7" stroke="null"/>
   </g>
   <g id="svg_3" stroke="null">
    <title stroke="null">Layer 1</title>
    <path transform="rotate(90 39.9157 38.2946)" id="svg_5" fill="#E63C1E" d="m59.44325,8a0.79492,0.79492 0 0 1 0.46105,0.14706l12.97711,9.27277a0.79492,0.79492 0 0 1 0,1.29175l-12.97711,9.2688a0.79492,0.79492 0 0 1 -1.25597,-0.64389l0,-6.35938l-16.09321,0c-0.46105,0 -0.96185,0.50478 -1.0652,1.27585l-0.01987,0.30207l0,31.44713c0,0.83467 0.44516,1.43086 0.91416,1.55408l0.17091,0.02384l16.08923,0l0,-6.3236a0.79492,0.79492 0 0 1 1.25598,-0.64787l12.97711,9.27277a0.79492,0.79492 0 0 1 0,1.29175l-12.97711,9.2688a0.79492,0.79492 0 0 1 -1.25598,-0.64389l0,-6.44682l-16.08923,0c-3.70831,0 -6.61375,-3.09622 -6.83633,-6.87608l-0.0159,-0.469l-0.00398,-12.838l-9.26482,0a8.65273,8.65273 0 1 1 0,-5.77114l9.2688,0l0,-12.83799c0,-3.82358 2.75838,-7.07481 6.39913,-7.32919l0.45708,-0.0159l16.08525,0l0.00398,-6.41899c0,-0.43721 0.35771,-0.79493 0.79492,-0.79493z" stroke="null"/>
   </g>
  </g>
 </g>

</svg>