<svg width="40" height="40" xmlns="http://www.w3.org/2000/svg" p-id="8835" version="1.1" class="icon" t="1732559402417">

 <g>
  <title>Layer 1</title>
  <path stroke="null" id="svg_1" p-id="8836" fill="#1296db" d="m14.03972,23.63922a1.7016,1.7016 0 0 1 2.40349,0l2.85576,2.85597l6.95575,-6.95596a1.69948,1.69948 0 0 1 2.40349,0l6.2972,6.29742l0,-16.37341a1.70139,1.70139 0 0 0 -1.69948,-1.69948l-23.79269,0a1.70139,1.70139 0 0 0 -1.69948,1.69948l0,20.45216l6.27596,-6.27617zm1.20174,-11.79671c1.8741,0 3.39896,1.52486 3.39896,3.39896s-1.52486,3.39896 -3.39896,3.39896s-3.39896,-1.52486 -3.39896,-3.39896s1.52486,-3.39896 3.39896,-3.39896zm-2.03937,3.39896a2.03937,2.03937 0 1 1 2.03937,2.03937a2.04171,2.04171 0 0 1 -2.03937,-2.03937zm21.75332,12.51772l0,5.49675a1.70139,1.70139 0 0 1 -1.69948,1.69948l-20.49464,0l14.45491,-14.4547a0.3399,0.3399 0 0 1 0.48053,0l7.25868,7.25847zm-24.11665,7.19623l-1.37552,0a1.70139,1.70139 0 0 1 -1.69948,-1.69948l0,-1.418l7.23744,-7.23723a0.3399,0.3399 0 0 1 0.48053,0l2.85597,2.85576l-7.49895,7.49895zm-5.11437,-9.51708a0.67979,0.67979 0 0 1 -0.67979,-0.67979l0,-18.01447a1.70139,1.70139 0 0 1 1.69948,-1.69948l18.01447,0a0.67979,0.67979 0 0 1 0,1.35958l-18.01447,0a0.3399,0.3399 0 0 0 -0.3399,0.3399l0,18.01447a0.67979,0.67979 0 0 1 -0.67979,0.67979z"/>
 </g>
</svg>