<svg width="40" height="40" xmlns="http://www.w3.org/2000/svg" t="1733070571760" class="icon" version="1.1" p-id="46749">
 <g>
  <title>Layer 1</title>
  <g id="svg_7">
   <g id="svg_3" stroke="null">
    <path d="m17.11988,24.73531l-2.67755,-3.70461c-0.35474,-0.49079 -0.92985,-0.49075 -1.28459,0l-4.93611,6.82955c-0.35474,0.49079 -0.14308,0.88867 0.47273,0.88867l22.6155,0c0.61617,0 0.8231,-0.39701 0.46491,-0.88674l-7.82242,-10.69511c-0.36053,-0.49294 -0.93891,-0.4897 -1.29707,0l-5.53536,7.56823l-0.00004,0l0,0.00001zm-5.81106,-11.19595a2.12611,2.12611 0 1 0 4.34561,0a2.12611,2.12611 0 1 0 -4.34561,0z" p-id="46750" fill="#1296db" id="svg_1" stroke="null"/>
    <path d="m5.33135,8.10736l29.33729,0c-0.30526,0 -0.54547,-0.24308 -0.54547,-0.54125l0,23.89685c0,-0.29878 0.24137,-0.54125 0.54547,-0.54125l-29.33729,0c0.30526,0 0.54547,0.24308 0.54547,0.54125l0,-23.89685c0,0.29878 -0.24137,0.54125 -0.54547,0.54125zm-1.62731,23.35564c0,0.89606 0.72677,1.63154 1.62731,1.63154l29.33729,0c0.89806,0 1.62731,-0.73249 1.62731,-1.63154l0,-23.89689c0,-0.89606 -0.72677,-1.63154 -1.62731,-1.63154l-29.33729,0c-0.89806,0 -1.62731,0.73249 -1.62731,1.63154l0,23.89685l0,0.00004z" p-id="46751" fill="#1296db" id="svg_2" stroke="null"/>
   </g>
   <g id="svg_5" stroke="null">
    <path id="svg_6" d="m32.345,23.00002l-10.55377,-6.52462l-1.99653,-1.21731c-0.21714,-0.13254 -0.40287,-0.04815 -0.4725,-0.00566a0.46323,0.48919 0 0 0 -0.23162,0.42361l0,15.65397a0.46323,0.48919 0 0 0 0.78416,0.35283l3.35843,-3.40719l2.83107,5.17835a1.15808,1.22297 0 0 0 1.58165,0.44776l2.80834,-1.71215a1.15808,1.22297 0 0 0 0.424,-1.67073l-2.83136,-5.17835l4.47308,-1.36758a0.46323,0.48919 0 0 0 0.10278,-0.89353l-0.27774,-0.07939l0.00001,-0.00001z" fill="#fc9b2d" p-id="68872"/>
   </g>
  </g>
 </g>

</svg>