<svg width="40" height="40" xmlns="http://www.w3.org/2000/svg" t="1732564218327" class="icon" version="1.1" p-id="13134">
 <g>
  <title>Layer 1</title>
  <g id="svg_5">
   <g id="svg_3" stroke="null">
    <path d="m31.68522,6.02929l-20.65302,0c-1.90047,0 -3.44115,1.56514 -3.44115,3.49268l0,20.95605c0,1.93066 1.54067,3.49268 3.44115,3.49268l20.64995,0c1.90047,0 3.44115,-1.56514 3.44115,-3.49268l0,-20.95605c0.00308,-1.92753 -1.54067,-3.49268 -3.43807,-3.49268l-0.00001,0zm-20.25325,2.22119l19.84732,0c0.91333,0 1.65446,0.74977 1.65446,1.67761l0,14.07067l-4.21917,-5.78572c-0.20911,-0.29054 -0.54739,-0.46548 -0.91026,-0.47485c-0.36287,-0.00937 -0.71037,0.14683 -0.93486,0.42487l-6.14732,7.53518l-3.96393,-3.65513c-0.40593,-0.37488 -1.03327,-0.41237 -1.48224,-0.08747l-5.49538,3.96128l0,-15.98883c0,-0.92472 0.73805,-1.67761 1.65138,-1.67761zm19.85039,23.49589l-19.85039,0c-0.91333,0 -1.65446,-0.74977 -1.65446,-1.67761l0,-1.3777c0.06765,-0.03124 0.13531,-0.06873 0.19681,-0.11559l5.89823,-4.24869l4.17304,3.84882c0.23679,0.21868 0.55354,0.32802 0.87643,0.30616s0.62119,-0.17495 0.82415,-0.42175l5.97818,-7.32587l4.75733,6.52924c0.11993,0.16557 0.27984,0.28741 0.45513,0.36864l0,2.43675c0,0.92472 -0.74112,1.67761 -1.65446,1.67761l0.00001,-0.00001z" fill="#1296db" p-id="13135" id="svg_1" stroke="null"/>
    <path d="m17.13941,16.27821c1.37262,0 2.49131,-1.13646 2.49131,-2.53088s-1.1187,-2.53088 -2.49131,-2.53088s-2.49131,1.13646 -2.49131,2.53088s1.1187,2.53088 2.49131,2.53088zm0,-3.30961c0.424,0 0.76656,0.348 0.76656,0.77873s-0.34256,0.77873 -0.76656,0.77873s-0.76656,-0.348 -0.76656,-0.77873s0.34016,-0.77873 0.76656,-0.77873z" fill="#1296db" p-id="13136" id="svg_2" stroke="null"/>
   </g>
   <path stroke="null" fill="#0000bf" d="m10.37027,22.42014l1.9162,-1.6494l-3.70489,0l-3.70488,0l0,-1.02106l0,-1.02106l3.66238,0c2.0143,0 3.66237,-0.05175 3.66237,-0.11501c0,-0.06325 -0.80189,-0.80548 -1.78197,-1.6494l-1.78198,-1.5344l1.64709,0l1.64709,0l2.51547,2.162l2.51547,2.162l-2.5203,2.15787l-2.5203,2.15787l-1.73399,0l-1.73399,0l1.91621,-1.64941l0,0l0.00002,0z" id="svg_4"/>
  </g>
 </g>

</svg>