<svg width="40" height="40" xmlns="http://www.w3.org/2000/svg" t="1746193366830" class="icon" version="1.1" p-id="10004">
 <g>
  <title>Layer 1</title>
  <g stroke="null" id="svg_3">
   <path stroke="null" d="m35.06397,7.66853l-18.16945,0l0,2.24107l17.434,0l0,22.35464l-26.7559,0l0,-13.3941l-2.20637,0l0,14.13739c0,0.82546 0.65823,1.49405 1.47092,1.49405l28.22314,0c0.81267,0 1.47092,-0.66858 1.47092,-1.49405l0,-23.84494c0.00368,-0.82546 -0.65823,-1.49405 -1.46724,-1.49405l-0.00001,-0.00001z" fill="#1296db" p-id="10005" id="svg_1"/>
   <path stroke="null" d="m32.66638,29.7393l-8.13415,-10.91025l-5.77333,7.7018l-3.32426,-3.46618l-5.72185,6.67464l22.9536,0l0,-0.00001zm-29.16452,-13.18494l10.87373,0l0,-11.01858l-2.20637,0l0,7.24984l-7.13392,-7.2872l-1.56653,1.57995l7.08612,7.23491l-7.05302,0l0,2.24107l-0.00001,0z" fill="#1296db" p-id="10006" id="svg_2"/>
  </g>
 </g>

</svg>