<svg width="40" height="40" xmlns="http://www.w3.org/2000/svg" p-id="20549" version="1.1" class="icon" t="1732361635278">

 <g>
  <title>Layer 1</title>
  <path stroke="null" id="svg_1" class="selected" data-spm-anchor-id="a313x.search_index.0.i27.308b3a81PIZXmY" p-id="20550" fill="#1296db" d="m15.77675,20.71195l4.91719,6.02689c0.42392,0.51959 0.42392,1.36198 0,1.88157l-4.91719,6.02689c-0.84784,-1.03918 -0.84784,-2.72397 0,-3.76314l1.52899,-1.87409l-11.95991,0c0,-1.46958 0.97199,-2.66093 2.17099,-2.66093l9.78899,0l-1.52905,-1.87405c-0.83932,-1.02878 -0.84774,-2.69033 -0.0252,-3.73175l0.0252,-0.03139zm18.87742,-12.69831l0,23.94841c0,1.46958 -0.97199,2.66093 -2.17099,2.66093l-9.77257,0c0,-1.46958 0.97199,-2.66093 2.17099,-2.66093l7.60158,0l0,-23.94841l-21.84557,0l0,8.73119c0,1.45491 -0.95259,2.63707 -2.13503,2.66056l-0.03596,0.00037l0,-11.39213c0,-1.46958 0.97199,-2.66093 2.17099,-2.66093l21.84557,0c1.199,0 2.17099,1.19135 2.17099,2.66093zm-5.35963,8.81435c0,1.46958 -0.97199,2.66093 -2.17099,2.66093l-6.51296,0c0,-1.46958 0.97199,-2.66093 2.17099,-2.66093l6.51296,0zm0,-5.73764c0,1.46958 -0.97199,2.66093 -2.17099,2.66093l-6.51296,0c0,-1.46958 0.97199,-2.66093 2.17099,-2.66093l6.51296,0z"/>
 </g>
</svg>