<svg width="39.99999999999999" height="39.99999999999999" xmlns="http://www.w3.org/2000/svg">

 <g>
  <title>Layer 1</title>
  <g id="svg_9">
   <path stroke="null" id="svg_7" p-id="1444" fill="#FFFFFF" d="m20.00001,23.71048c4.9994,0 8.60104,0.66062 10.80491,1.98295c0.65092,0.38581 1.04859,1.08631 1.04967,1.84285l0,4.3183l1.61653,0a1.61653,1.61653 0 0 1 0,3.23307l-26.94223,0a1.61653,1.61653 0 0 1 0,-3.23307l1.61653,0l0,-4.31722c0,-0.75762 0.39875,-1.45811 1.04967,-1.845c2.20387,-1.32125 5.80551,-1.98295 10.80491,-1.98295l0,0.00108l0.00001,-0.00001z"/>
   <path stroke="null" id="svg_6" data-spm-anchor-id="a313x.manage_type_mylikes.0.i3.68d03a811oIMQQ" p-id="1445" fill="#13227a" d="m20.00001,22.63279c-5.17722,0 -8.95237,0.69188 -11.35885,2.13598l-0.1789,0.11316a3.22445,3.22445 0 0 0 -1.39453,2.65327l0,3.24169l-0.53884,0a2.69422,2.69422 0 1 0 0,5.38845l26.94223,0a2.69422,2.69422 0 0 0 2.69422,-2.69422l-0.00539,-0.17674a2.69422,2.69422 0 0 0 -2.68884,-2.51748l-0.53992,0l0.00108,-3.23953a3.22552,3.22552 0 0 0 -1.57666,-2.77074c-2.40325,-1.44195 -6.17839,-2.13382 -11.35561,-2.13382l0.00001,-0.00002zm0,1.07769c4.9994,0 8.60104,0.66062 10.80491,1.98295c0.65092,0.38581 1.04859,1.08631 1.04967,1.84285l0,4.3183l1.61653,0a1.61653,1.61653 0 0 1 0,3.23307l-26.94223,0a1.61653,1.61653 0 0 1 0,-3.23307l1.61653,0l0,-4.31722c0,-0.75762 0.39875,-1.45811 1.04967,-1.845c2.20387,-1.32125 5.80551,-1.98295 10.80491,-1.98295l0,0.00108l0.00001,-0.00001z"/>
   <path stroke="null" id="svg_5" data-spm-anchor-id="a313x.manage_type_mylikes.0.i1.68d03a811oIMQQ" p-id="1446" fill="#1296db" d="m4.91236,31.85458m1.61653,0l26.94223,0q1.61653,0 1.61653,1.61653l0,0q0,1.61653 -1.61653,1.61653l-26.94223,0q-1.61653,0 -1.61653,-1.61653l0,0q0,-1.61653 1.61653,-1.61653z"/>
   <g transform="rotate(180 20 12.475)" id="svg_8">
    <path stroke="null" id="svg_4" data-spm-anchor-id="a313x.manage_type_mylikes.0.i2.68d03a811oIMQQ" p-id="1447" fill="#13227a" d="m19.80896,3.84005a3.23522,3.23522 0 0 0 -3.04555,3.22984l0,2.86234l-0.5119,0.04311c-0.51082,0.04634 -1.02165,0.10238 -1.53247,0.16812a1.90535,1.90535 0 0 0 -1.32664,2.96903l4.86577,7.08581a2.11227,2.11227 0 0 0 3.48309,0l4.86577,-7.08581a1.90535,1.90535 0 0 0 -1.32771,-2.97011l-0.76624,-0.09053c-0.25541,-0.02802 -0.51082,-0.05388 -0.76624,-0.07759l-0.51298,-0.04203l0,-2.86234a3.23522,3.23522 0 0 0 -3.23522,-3.23522l-0.18967,0.00539l-0.00001,-0.00001zm0.18967,1.0723c1.19192,0 2.15753,0.96561 2.15753,2.15753l0,3.8689c0.99471,0.05388 1.98941,0.14549 2.98412,0.27266a0.82767,0.82767 0 0 1 0.57656,1.29107l-4.86577,7.08581a1.03458,1.03458 0 0 1 -1.7049,0l-4.86577,-7.08581a0.82874,0.82874 0 0 1 0.57656,-1.29107a40.51573,40.51573 0 0 1 2.9852,-0.27158l-0.00108,-3.86998c0,-1.19192 0.96561,-2.15753 2.15753,-2.15753l0.00002,0z"/>
    <path stroke="null" id="svg_3" p-id="1448" fill="#FFFFFF" d="m19.99961,4.91235c1.19192,0 2.15753,0.96561 2.15753,2.15753l0,3.8689c0.99471,0.05388 1.98941,0.14549 2.98412,0.27266a0.82767,0.82767 0 0 1 0.57656,1.29107l-4.86577,7.08581a1.03458,1.03458 0 0 1 -1.7049,0l-4.86577,-7.08581a0.82874,0.82874 0 0 1 0.57656,-1.29107a40.51573,40.51573 0 0 1 2.9852,-0.27158l-0.00108,-3.86998c0,-1.19192 0.96561,-2.15753 2.15753,-2.15753l0.00002,0z"/>
    <path stroke="null" id="svg_2" data-spm-anchor-id="a313x.manage_type_mylikes.0.i0.68d03a811oIMQQ" p-id="1449" fill="#1296db" d="m22.15498,10.9237l0.00108,0.01617c0.99579,0.05388 1.99049,0.14441 2.9852,0.27158a0.82767,0.82767 0 0 1 0.57656,1.29107l-4.86577,7.08581a1.03458,1.03458 0 0 1 -1.7049,0l-4.86577,-7.08581a0.82874,0.82874 0 0 1 0.57656,-1.29107a40.51573,40.51573 0 0 1 2.9852,-0.27158l-0.00108,-0.01617l4.31291,0l0.00001,0z"/>
   </g>
  </g>
 </g>
</svg>