<svg width="44" height="44" xmlns="http://www.w3.org/2000/svg" p-id="63106" version="1.1" class="icon" t="1732278104531">

 <g>
  <title>Layer 1</title>
  <path stroke="null" id="svg_1" p-id="63107" fill="#1296db" d="m23.17223,17.18406l0.02644,9.26741s1.80036,-2.47444 3.91823,0.17297c0,0 1.58859,-2.69609 3.82013,0.13047c0,0 1.58217,-3.11763 3.17076,0.27057c0.41191,4.72155 0.41191,7.49423 0,8.31781c-0.61774,1.23549 -1.48259,2.71808 -4.94196,2.71808l-7.63187,0c-1.54609,0 -3.61134,-2.6054 -6.19499,-7.81595c0,0 -0.31307,-2.9165 2.47765,-1.68768c1.61009,0.72968 2.18484,2.26169 2.18484,2.26169l0.05782,-13.63536l0.00198,-0.00297c0.06425,-0.09538 1.69163,-2.45418 3.11096,0.00297zm10.68847,-11.24543c2.1836,0 3.95357,1.76996 3.95357,3.95357l0,9.88392c0,2.15741 -1.7282,3.91156 -3.87573,3.95283l-0.07784,0.00074l-9.14262,0l0,-1.97678l9.14262,0a1.97678,1.97678 0 0 0 1.97579,-1.91501l0.00099,-0.06177l0,-1.02299a3.93528,3.93528 0 0 1 -1.97678,0.52879l-5.31186,0a7.36154,7.36154 0 0 0 0.55177,-1.97654l4.76009,-0.00025a1.97678,1.97678 0 0 0 1.97678,-1.97678l0,-5.43615a1.97678,1.97678 0 0 0 -1.97678,-1.97678l-23.7214,0a1.97678,1.97678 0 0 0 -1.97678,1.97678l0,5.43615a1.97678,1.97678 0 0 0 1.97678,1.97678l4.2659,0.00025a7.36154,7.36154 0 0 0 0.55177,1.97678l-4.81767,-0.00025c-0.72004,0 -1.39511,-0.19274 -1.97678,-0.52879l0,1.02299a1.97678,1.97678 0 0 0 1.91501,1.97579l0.06177,0.00099l8.64843,0l0,1.97678l-8.64843,0c-2.15741,0 -3.91156,-1.7282 -3.95283,-3.87573l-0.00074,-0.07784l0,-9.88392c0,-2.1836 1.76996,-3.95357 3.95357,-3.95357l23.7214,0zm-12.1078,4.94196c3.13814,0 5.68325,2.49495 5.68325,5.57082c0,2.05981 -1.15543,3.83842 -2.85077,4.80309l0,-1.76181c0.84853,-0.76106 1.39141,-1.84632 1.39141,-3.06327c0,-2.29826 -1.90191,-4.16261 -4.24662,-4.16261c-2.34446,0 -4.24638,1.86435 -4.24638,4.16261c0,1.24191 0.56561,2.34397 1.44503,3.10775l0,1.72153c-1.70102,-0.96195 -2.85917,-2.74328 -2.85917,-4.80729c0,-3.07587 2.54511,-5.57082 5.68325,-5.57082z"/>
 </g>
</svg>