<svg width="40" height="40" xmlns="http://www.w3.org/2000/svg" p-id="47067" version="1.1" class="icon" t="1732479599760">

 <g>
  <title>Layer 1</title>
  <g stroke="null" id="svg_2">
   <g stroke="null">
    <path stroke="null" data-spm-anchor-id="a313x.search_index.0.i60.4f753a81tF5mVv" p-id="74781" fill="#005FBF" d="m7.0494,9.47775l24.11557,0c1.47373,0 2.67951,1.20578 2.67951,2.67951l0,13.39754c0,1.47373 -1.20578,2.67951 -2.67951,2.67951l-24.11557,0c-1.47373,0 -2.67951,-1.20578 -2.67951,-2.67951l0,-13.39754c0,-1.47373 1.20578,-2.67951 2.67951,-2.67951zm6.02889,2.67951c-0.40193,0 -0.66988,0.26795 -0.66988,0.66988l0,1.33975c0,0.40193 0.26795,0.66988 0.66988,0.66988l1.33975,0c0.40193,0 0.66988,-0.26795 0.66988,-0.66988l0,-1.33975c0,-0.40193 -0.26795,-0.66988 -0.66988,-0.66988l-1.33975,0zm-5.35902,0c-0.40193,0 -0.66988,0.26795 -0.66988,0.66988l0,1.33975c0,0.40193 0.26795,0.66988 0.66988,0.66988l1.33975,0c0.40193,0 0.66988,-0.26795 0.66988,-0.66988l0,-1.33975c0,-0.40193 -0.26795,-0.66988 -0.66988,-0.66988l-1.33975,0zm2.67951,5.35902c-0.40193,0 -0.66988,0.26795 -0.66988,0.66988l0,1.33975c0,0.40193 0.26795,0.66988 0.66988,0.66988l1.33975,0c0.40193,0 0.66988,-0.26795 0.66988,-0.66988l0,-1.33975c0,-0.40193 -0.26795,-0.66988 -0.66988,-0.66988l-1.33975,0zm5.35902,0c-0.40193,0 -0.66988,0.26795 -0.66988,0.66988l0,1.33975c0,0.40193 0.26795,0.66988 0.66988,0.66988l1.33975,0c0.40193,0 0.66988,-0.26795 0.66988,-0.66988l0,-1.33975c0,-0.40193 -0.26795,-0.66988 -0.66988,-0.66988l-1.33975,0zm5.35902,0c-0.40193,0 -0.66988,0.26795 -0.66988,0.66988l0,1.33975c0,0.40193 0.26795,0.66988 0.66988,0.66988l1.33975,0c0.40193,0 0.66988,-0.26795 0.66988,-0.66988l0,-1.33975c0,-0.40193 -0.26795,-0.66988 -0.66988,-0.66988l-1.33975,0zm5.35902,0c-0.40193,0 -0.66988,0.26795 -0.66988,0.66988l0,1.33975c0,0.40193 0.26795,0.66988 0.66988,0.66988l1.33975,0c0.40193,0 0.66988,-0.26795 0.66988,-0.66988l0,-1.33975c0,-0.40193 -0.26795,-0.66988 -0.66988,-0.66988l-1.33975,0zm-8.03852,-5.35902c-0.40193,0 -0.66988,0.26795 -0.66988,0.66988l0,1.33975c0,0.40193 0.26795,0.66988 0.66988,0.66988l1.33975,0c0.40193,0 0.66988,-0.26795 0.66988,-0.66988l0,-1.33975c0,-0.40193 -0.26795,-0.66988 -0.66988,-0.66988l-1.33975,0zm-8.03852,10.71803c-0.40193,0 -0.66988,0.26795 -0.66988,0.66988l0,1.33975c0,0.40193 0.26795,0.66988 0.66988,0.66988l17.4168,0c0.40193,0 0.66988,-0.26795 0.66988,-0.66988l0,-1.33975c0,-0.40193 -0.26795,-0.66988 -0.66988,-0.66988l-17.4168,0zm13.39754,-10.71803c-0.40193,0 -0.66988,0.26795 -0.66988,0.66988l0,1.33975c0,0.40193 0.26795,0.66988 0.66988,0.66988l1.33975,0c0.40193,0 0.66988,-0.26795 0.66988,-0.66988l0,-1.33975c0,-0.40193 -0.26795,-0.66988 -0.66988,-0.66988l-1.33975,0zm5.35902,0c-0.40193,0 -0.66988,0.26795 -0.66988,0.66988l0,1.33975c0,0.40193 0.26795,0.66988 0.66988,0.66988l1.33975,0c0.40193,0 0.66988,-0.26795 0.66988,-0.66988l0,-1.33975c0,-0.40193 -0.26795,-0.66988 -0.66988,-0.66988l-1.33975,0z"/>
   </g>
   <path stroke="null" id="svg_1" fill="#069606" p-id="47068" d="m34.54788,17.53605l-10.82172,0c-0.59509,0 -1.08224,0.48698 -1.08224,1.08208l0,10.82172c0,0.59509 0.48714,1.0824 1.08224,1.0824l10.82172,0c0.59509,0 1.08224,-0.48731 1.08224,-1.0824l0,-10.82172c0,-0.59509 -0.48714,-1.08208 -1.08224,-1.08208zm-1.62327,4.86982l-1.08208,0l0,-1.0824l-2.16447,0l0,5.41102l1.08224,0l0,1.08208l-3.24655,0l0,-1.08208l1.08224,0l0,-5.41102l-2.16447,0l0,1.0824l-1.08208,0l0,-1.62327a0.54104,0.54104 0 0 1 0.54104,-0.5412l6.4931,0a0.54055,0.54055 0 0 1 0.54104,0.5412l0,1.62327z"/>
  </g>
 </g>
</svg>