<svg width="290" height="290" xmlns="http://www.w3.org/2000/svg">
 <g>
  <title>Layer 1</title>
  <!-- Created with Method Draw - http://github.com/duopixel/Method-Draw/ -->
  <g id="svg_8">
   <title>background</title>
   <rect x="-1" y="-1" width="44" height="44" id="svg_7" fill="none"/>
   <g id="svg_6" width="100%" height="100%" x="0" y="0" overflow="visible" display="none">
    <rect transform="translate(229 -12) translate(0 279)" width="100%" height="100%" x="0" y="0" stroke-width="0" fill="url()" id="svg_9"/>
   </g>
  </g>
  <g stroke="null" id="svg_4">
   <path stroke="null" d="m29.48745,4l211.3861,0c12.91814,0 23.48738,10.56923 23.48738,23.48723l0,117.4368c0,12.91807 -10.56923,23.48738 -23.48738,23.48738l-211.38617,0c-12.918,0 -23.48738,-10.56931 -23.48738,-23.48738l0,-117.4368c0,-12.918 10.56937,-23.48723 23.48738,-23.48723l0.00007,0zm52.84651,23.48723c-3.52312,0 -5.87176,2.34878 -5.87176,5.8719l0,11.74365c0,3.52319 2.34863,5.8719 5.87176,5.8719l11.74372,0c3.52305,0 5.87176,-2.3487 5.87176,-5.8719l0,-11.74365c0,-3.52305 -2.3487,-5.8719 -5.87176,-5.8719l-11.74372,0zm-46.97468,0c-3.52305,0 -5.87183,2.34878 -5.87183,5.8719l0,11.74365c0,3.52319 2.34878,5.8719 5.87183,5.8719l11.74365,0c3.52305,0 5.8719,-2.3487 5.8719,-5.8719l0,-11.74365c0,-3.52305 -2.34885,-5.8719 -5.8719,-5.8719l-11.74365,0zm23.48738,46.97475c-3.52319,0 -5.87183,2.3487 -5.87183,5.8719l0,11.74365c0,3.52305 2.34863,5.87183 5.87183,5.87183l11.74365,0c3.52305,0 5.8719,-2.34878 5.8719,-5.87183l0,-11.74365c0,-3.52319 -2.34878,-5.8719 -5.8719,-5.8719l-11.74365,0zm46.97468,0c-3.52305,0 -5.8719,2.3487 -5.8719,5.8719l0,11.74365c0,3.52305 2.34878,5.87183 5.8719,5.87183l11.74365,0c3.52305,0 5.87183,-2.34878 5.87183,-5.87183l0,-11.74365c0,-3.52319 -2.34878,-5.8719 -5.87183,-5.8719l-11.74365,0zm46.97468,0c-3.52312,0 -5.87183,2.3487 -5.87183,5.8719l0,11.74365c0,3.52305 2.3487,5.87183 5.87183,5.87183l11.74372,0c3.52305,0 5.87176,-2.34878 5.87176,-5.87183l0,-11.74365c0,-3.52319 -2.3487,-5.8719 -5.87176,-5.8719l-11.74372,0zm46.97475,0c-3.52312,0 -5.8719,2.3487 -5.8719,5.8719l0,11.74365c0,3.52305 2.34878,5.87183 5.8719,5.87183l11.74365,0c3.52305,0 5.87183,-2.34878 5.87183,-5.87183l0,-11.74365c0,-3.52319 -2.34878,-5.8719 -5.87183,-5.8719l-11.74365,0zm-70.46206,-46.97475c-3.52319,0 -5.8719,2.34878 -5.8719,5.8719l0,11.74365c0,3.52319 2.3487,5.8719 5.8719,5.8719l11.74365,0c3.52305,0 5.87183,-2.3487 5.87183,-5.8719l0,-11.74365c0,-3.52305 -2.34878,-5.8719 -5.87183,-5.8719l-11.74365,0zm-70.46206,93.94943c-3.52319,0 -5.87183,2.34878 -5.87183,5.8719l0,11.74365c0,3.52312 2.34863,5.87183 5.87183,5.87183l152.66776,0c3.52305,0 5.87183,-2.3487 5.87183,-5.87183l0,-11.74365c0,-3.52312 -2.34878,-5.8719 -5.87183,-5.8719l-152.66776,0z" fill="#005FBF" id="svg_5"/>
  </g>
  <g stroke="null" id="svg_1">
   <path stroke="null" d="m260.22996,196.74255l11.82391,-5.16427a9.97083,9.88218 0 0 1 9.41815,0.73183c2.82361,1.79963 4.52799,4.89277 4.52799,8.20674l0,62.80054c0,3.31396 -1.7044,6.40711 -4.52799,8.20685c-2.8143,1.79507 -6.35768,2.07122 -9.41815,0.73183l-11.82391,-5.16436l0,2.79849c0,8.90181 -7.3284,16.10979 -16.36109,16.10979l-78.50362,0c-9.02814,0 -16.36586,-7.20797 -16.36586,-16.10979l0,-75.94614c0,-8.90181 7.33772,-16.10979 16.36586,-16.10979l78.51293,0c9.02803,0 16.35645,7.20797 16.35645,16.10979l0,2.79849l-0.00466,0l0,-0.00001l-0.00001,0zm-6.96147,-2.79849c0,-5.07684 -4.19821,-9.2056 -9.39497,-9.2056l-78.50838,0c-5.20132,0 -9.39962,4.12876 -9.39962,9.2056l0,75.94614c0,5.07684 4.20295,9.2056 9.39962,9.2056l78.50372,0c5.20132,0 9.39497,-4.12876 9.39497,-9.2056l0,-13.38033l4.89027,2.13113l16.7094,7.2954c0.92416,0.405 1.99226,0.32216 2.83292,-0.21635a2.88858,2.86298 0 0 0 1.33746,-2.40262l0,-62.80054a2.88858,2.86298 0 0 0 -1.33289,-2.40262a3.00469,2.978 0 0 0 -2.83747,-0.21635l-21.59501,9.42652l0,-13.38033l-0.00001,-0.00003l-0.00001,-0.00001z" fill="#005FBF" class="selected" id="svg_3"/>
   <path stroke="null" d="m188.23995,208.2618l0,47.57894a3.90745,3.87272 0 0 0 2.11005,3.41342a4.05259,4.01653 0 0 0 4.08607,-0.18801l36.68522,-22.43311a3.89626,3.86163 0 0 0 1.77512,-4.58182a3.89626,3.86163 0 0 0 -1.77512,-3.23091l-36.68522,-23.78392a4.05259,4.01653 0 0 0 -4.08607,-0.18801a3.90745,3.87272 0 0 0 -2.11005,3.41342l0,0.00001l0,-0.00003z" fill="#ff0000" id="svg_2"/>
  </g>
 </g>

</svg>