<svg width="290" height="290" xmlns="http://www.w3.org/2000/svg">
 <g>
  <title>Layer 1</title>
  <!-- Created with Method Draw - http://github.com/duopixel/Method-Draw/ -->
  <g stroke-width="0" stroke="null">
   <path stroke="null" p-id="53156" fill="#E63C1E" d="m40.24475,178.80199a9.6417,9.6417 0 0 1 -11.80941,-6.74254a85.28578,85.28578 0 0 1 -3.12524,-23.24646l0,-0.10639a86.97474,86.97474 0 0 1 24.96202,-61.30789a83.65002,83.65002 0 0 1 59.99129,-25.40088l89.67442,0l0,-17.38165c0,-5.55894 3.73699,-7.64686 8.3251,-4.61471l41.17337,27.04994c4.60142,3.01885 4.54822,7.87294 -0.10639,10.812l-40.96058,25.81315c-4.64131,2.95235 -8.4315,0.81123 -8.4315,-4.761l0,-17.34175l-89.40844,0c-36.43896,0.0399 -65.98909,30.13529 -65.98909,67.23919c0,6.38347 0.87773,12.56745 2.50019,18.43226a9.78798,9.78798 0 0 1 -6.72924,11.51684l-0.0665,0.0399l0,0zm221.34673,-60.82912a88.7036,88.7036 0 0 1 3.09864,23.25976a87.08113,87.08113 0 0 1 -24.96202,61.34778a83.65002,83.65002 0 0 1 -60.01789,25.36098l-89.66112,0l0,17.44814c0,5.54564 -3.73699,7.62026 -8.3384,4.64131l-41.16007,-27.07654c-4.60142,-3.04545 -4.54822,-7.89954 0.10639,-10.812l40.96058,-25.82645c4.65461,-2.93905 8.47139,-0.79793 8.47139,4.7477l0,17.34175l89.38184,0c36.45226,-0.0266 66.02899,-30.13529 66.02899,-67.23919c0,-6.37017 -0.87773,-12.55415 -2.51349,-18.43226a9.70819,9.70819 0 0 1 9.38902,-11.72962a9.6417,9.6417 0 0 1 9.21613,6.88883l0,0.07979l0,0z"/>
  </g>
 </g>

</svg>