<?xml version="1.0" standalone="no"?><!DOCTYPE svg PUBLIC "-//W3C//DTD SVG 1.1//EN" "http://www.w3.org/Graphics/SVG/1.1/DTD/svg11.dtd"><svg t="1715876127573" class="icon" viewBox="0 0 1024 1024" version="1.1" xmlns="http://www.w3.org/2000/svg" p-id="6964" data-spm-anchor-id="a313x.search_index.0.i13.11323a81iL1ho7" width="32" height="32" xmlns:xlink="http://www.w3.org/1999/xlink"><path d="M432 112a64 64 0 0 1 63.92 60.8L496 176v672a64 64 0 0 1-60.8 63.92L432 912H208a96 96 0 0 1-95.936-92.4L112 816V208a96 96 0 0 1 92.4-95.936L208 112h224z m384 0a96 96 0 0 1 96 96v608a96 96 0 0 1-96 96H592a64 64 0 0 1-64-64V176a64 64 0 0 1 64-64h224z m-384 64H208a32 32 0 0 0-31.92 29.6L176 208v608a32 32 0 0 0 29.6 31.92L208 848h224V176z m384 0H592v672h224a32 32 0 0 0 32-32V208a32 32 0 0 0-32-32zM304 384c6.112 0 12.208 2.288 16.864 6.864l56.16 55.216a23.152 23.152 0 0 1 0 33.136 24.112 24.112 0 0 1-33.696 0l-14.96-14.704v152.064c0 12.928-10.672 23.424-23.824 23.424-13.168 0-23.84-10.496-23.84-23.424v-153.12l-16.032 15.76a24.128 24.128 0 0 1-31.888 1.6l-1.808-1.6a23.152 23.152 0 0 1-1.632-31.36l1.632-1.76 56.16-55.232c4.656-4.576 10.752-6.864 16.848-6.864z m416.544 0c12.384 0 22.56 9.28 23.712 21.168l0.112 2.256v152.064l14.96-14.72a24.112 24.112 0 0 1 33.696 0c8.72 8.592 9.28 22.16 1.632 31.36l-1.632 1.792-56.16 55.216c-4.656 4.576-10.752 6.864-16.88 6.864a24 24 0 0 1-15.04-5.248l-1.808-1.6-56.16-55.232-1.632-1.792a23.136 23.136 0 0 1 0-29.568l1.632-1.776 1.808-1.6a24.16 24.16 0 0 1 30.08 0l1.808 1.6 16.032 15.776v-153.12c0-12.96 10.672-23.44 23.84-23.44z" fill="#005FBF" p-id="6965" data-spm-anchor-id="a313x.search_index.0.i14.11323a81iL1ho7" class=""></path></svg>