<?xml version="1.0" standalone="no"?><!DOCTYPE svg PUBLIC "-//W3C//DTD SVG 1.1//EN" "http://www.w3.org/Graphics/SVG/1.1/DTD/svg11.dtd"><svg t="1715876458843" class="icon" viewBox="0 0 1024 1024" version="1.1" xmlns="http://www.w3.org/2000/svg" p-id="18249" width="32" height="32" xmlns:xlink="http://www.w3.org/1999/xlink"><path d="M108.595053 110.473029c199.701245-46.738589 407.900415-42.489627 603.352697 16.995851 8.497925 4.248963 29.742739-4.248963 29.742739-12.746888 4.248963-8.497925-4.248963-25.493776-16.995851-29.742739C524.993393 25.493776 308.296298 16.995851 104.34609 63.73444 95.848165 46.738589 91.599202 29.742739 87.35024 12.746888 87.35024 8.497925 87.35024 0 74.603352 0c-4.248963 0-8.497925 4.248963-12.746888 8.497925-21.244813 29.742739-42.489627 55.236515-59.485477 84.979253-4.248963 8.497925 0 16.995851 8.497925 25.493776 29.742739 12.746888 63.73444 29.742739 89.228216 46.73859 8.497925 4.248963 8.497925 4.248963 16.99585 0s8.497925-8.497925 4.248963-16.995851c-4.248963-12.746888-8.497925-29.742739-12.746888-38.240664z m824.298755 327.170125c-8.497925-25.493776-38.240664-42.489627-63.73444-42.489627-8.497925 0-16.995851 0-25.493776 4.248963-4.248963 0-12.746888 8.497925-25.493775 12.746888-12.746888-29.742739-42.489627-46.738589-72.232366-46.73859-8.497925 0-16.995851 0-29.742738 4.248963-16.995851 8.497925-29.742739 16.995851-42.489627 33.991701-21.244813-25.493776-50.987552-33.991701-84.979253-25.493776-21.244813 8.497925-33.991701 21.244813-46.738589 42.489627L469.756879 233.692946c-12.746888-33.991701-42.489627-59.485477-76.481328-59.485477-8.497925 0-16.995851 0-29.742739 4.248963-42.489627 16.995851-63.73444 63.73444-46.738589 106.224066l131.717843 335.66805c-8.497925 8.497925-16.995851 21.244813-29.742739 42.489626-38.240664 72.232365-8.497925 208.19917 89.228216 280.431536 72.232365 50.987552 140.215768 80.73029 212.448132 80.73029 42.489627 0 84.979253-8.497925 131.717843-25.493776 135.966805-46.738589 157.211618-131.717842 165.709543-212.448133 12.746888-80.73029-80.73029-335.66805-84.979253-348.414937z m50.987552 339.917012c-8.497925 76.481328-25.493776 140.215768-140.215768 186.954357-46.738589 16.995851-84.979253 25.493776-118.970954 25.493776-63.73444 0-118.970954-21.244813-191.203319-72.232365-59.485477-46.738589-118.970954-157.211618-80.730291-237.941909 4.248963-8.497925 8.497925-12.746888 12.746888-21.244813l42.489627 110.473029c4.248963 8.497925 12.746888 12.746888 21.244813 8.497925 8.497925-4.248963 12.746888-12.746888 8.497925-21.244813L346.536962 271.93361c-8.497925-25.493776 0-55.236515 25.493776-59.485477 25.493776-12.746888 50.987552 0 59.485477 29.742738l118.970954 293.178424c4.248963 8.497925 12.746888 12.746888 21.244814 8.497925 8.497925-4.248963 12.746888-8.497925 8.497925-21.244813l-4.248963-50.987552V467.385892c-4.248963-8.497925-4.248963-25.493776 0-33.991701 4.248963-8.497925 12.746888-16.995851 25.493776-21.244813 21.244813-8.497925 46.738589 4.248963 50.987552 29.742738l8.497925 29.742739c4.248963 8.497925 12.746888 12.746888 21.244814 8.497925 8.497925-4.248963 12.746888-12.746888 8.497925-21.244813-4.248963-8.497925-4.248963-25.493776 0-33.991701 4.248963-8.497925 12.746888-21.244813 25.493776-25.493776 4.248963-4.248963 8.497925-4.248963 12.746888-4.248963 16.995851 0 33.991701 8.497925 42.489626 29.742739 0 0 25.493776 55.236515 29.742739 67.983402 4.248963 12.746888 12.746888 12.746888 21.244813 8.497925s8.497925-8.497925 8.497926-25.493776l-12.746888-42.489626c8.497925-8.497925 16.995851-12.746888 25.493775-16.995851 4.248963 0 8.497925-4.248963 12.746888-4.248962 16.995851 0 29.742739 8.497925 33.991702 21.244813 33.991701 89.228216 101.975104 284.680498 93.477178 344.165975z" fill="#005FBF" p-id="18250"></path></svg>