<?xml version="1.0" standalone="no"?><!DOCTYPE svg PUBLIC "-//W3C//DTD SVG 1.1//EN" "http://www.w3.org/Graphics/SVG/1.1/DTD/svg11.dtd"><svg t="1715876429547" class="icon" viewBox="0 0 1024 1024" version="1.1" xmlns="http://www.w3.org/2000/svg" p-id="17945" width="32" height="32" xmlns:xlink="http://www.w3.org/1999/xlink"><path d="M327.018748 961.594684l-0.465116-0.784053c-0.624585-1.089701-1.714286-2.471761-2.657808-3.694352l-0.318936-0.531561c-0.478405-0.69103-1.063123-1.435216-1.435216-2.126246l-2.378738-3.441861-0.27907-0.318937-116.504983-179.348837a96.407973 96.407973 0 0 1-13.860465-71.149501 94.126246 94.126246 0 0 1 38.724252-60.438539 89.421927 89.421927 0 0 1 90.524917-6.578073V333.435216c-0.146179-52.119601 39.149502-94.61794 87.401994-94.61794s87.548173 42.498339 87.548172 94.684385v96.305648a70.24186 70.24186 0 0 1 21.980067-3.574751c22.817276 0 44.385382 10.990033 59.58804 29.980067a74.041196 74.041196 0 0 1 39.920265-12.385382c16.372093 0.079734 32.239203 5.687708 45.036545 15.920265 10.046512 7.853821 18.471761 18.006645 24.598007 29.807309 7.109635-2.232558 14.498339-3.468439 21.913621-3.468438 44.916944 0 81.435216 42.48505 81.435216 94.684385v251.906977c0 55.72093-24.637874 117.315615-62.764119 156.983389-21.249169 22.099668-44.106312 34.33887-64.584718 34.33887H411.53702c-46.644518 0-67.601329-34.591362-84.518272-62.405316z m338.48505 15.840532c7.548173 0 26.325581-12.611296 44.730897-40.531562 19.747508-30.139535 31.056478-66.20598 31.056478-98.843853V578.950166c0-21.169435-13.076412-39.561462-27.960133-39.561462-3.295681 0.013289-6.538206 0.850498-9.421927 2.418605v90.61794h-0.093023c-1.063123 15.189369-13.249169 26.976744-27.973422 27.04319-14.750831 0-27.016611-12-28.013289-27.016612h-0.039867v-78.657807l-1.687708-22.07309c-1.448505-19.681063-14.046512-35.72093-28.106312-35.72093-6.232558 0-12.637874 3.468439-17.687707 9.23588v98.006645c-0.039867 16.026578-12.611296 28.983389-28.132891 29.036545-15.468439-0.066445-28.013289-13.023256-28.066445-29.036545v-86.232558l-2.099668-10.07309c-3.468439-16.770764-15.096346-29.38206-26.950166-29.38206-8.079734 0-16.172757 5.727575-21.634551 15.029901l-0.903655 97.222591v36.55814c0 14.179402-11.242525 25.833887-24.95681 25.833887h-6.07309c-13.79402 0-24.983389-11.667774-24.983389-25.833887V334.578073l-0.159468-10.299003c0-21.820598-15.335548-39.495017-34.299004-39.495017s-34.272425 17.714286-34.272425 39.495017l1.222591 283.58804c0.066445 0.863787 0.093023 1.727575 0.093024 2.604651v112.518272c-0.225914 14.48505-10.697674 26.604651-24.571429 28.451827-14.086379 1.714286-27.255814-7.335548-30.710963-21.10299l-10.551495-31.800664a38.167442 38.167442 0 0 0-24.372093-16.863787c-9.993355-2.033223-20.372093 0.119601-28.730897 5.953488-17.554817 12.186047-22.192691 36.770764-10.431894 54.910299l120.106312 184.584718 0.398671 0.504983 1.475083 2.259136 1.847176 2.843854c1.129568 1.847176 2.352159 3.601329 3.441861 4.9701l0.784053 1.009966 0.571429 1.262459c18.710963 30.89701 25.913621 37.568106 40.119601 37.568106H665.490509v-0.13289z m0 0M260.91908 200.451827L167.483864 107.043189a7.956146 7.956146 0 0 1 0-11.255814L260.91908 2.33887a7.96412 7.96412 0 0 1 13.594685 5.621263V194.817276a7.96412 7.96412 0 0 1-13.594685 5.634551z m0 0" p-id="17946" fill="#005FBF"></path><path d="M271.53702 74.843854H749.47722v53.10299H271.53702z" p-id="17947" fill="#005FBF"></path><path d="M763.071904 2.352159l93.435216 93.408638a7.956146 7.956146 0 0 1 0 11.255814l-93.435216 93.435216a7.961462 7.961462 0 0 1-8.69103 1.714286 7.949502 7.949502 0 0 1-4.903654-7.375415V7.986711c0-3.229236 1.92691-6.139535 4.903654-7.375415a7.986711 7.986711 0 0 1 8.69103 1.714285v0.026578z m0 0" p-id="17948" fill="#005FBF"></path></svg>