<?xml version="1.0" standalone="no"?><!DOCTYPE svg PUBLIC "-//W3C//DTD SVG 1.1//EN" "http://www.w3.org/Graphics/SVG/1.1/DTD/svg11.dtd"><svg t="1715875924206" class="icon" viewBox="0 0 1024 1024" version="1.1" xmlns="http://www.w3.org/2000/svg" p-id="4496" width="32" height="32" xmlns:xlink="http://www.w3.org/1999/xlink"><path d="M512 64a448.284444 448.284444 0 0 1 427.576889 313.799111c10.012444 45.112889-57.059556 62.805333-73.784889 18.944a372.053333 372.053333 0 1 0-367.104 487.025778c6.883556 0 11.377778 0.056889 13.255111 0.227555 36.977778-0.227556 36.977778 76.003556 0 76.003556a448.056889 448.056889 0 0 1-447.715555-434.062222L64 512A448.056889 448.056889 0 0 1 512 64z" fill="#2c2c2c" p-id="4497" data-spm-anchor-id="a313x.search_index.0.i4.11323a81iL1ho7" class=""></path><path d="M887.182222 554.097778L475.136 442.595556c-15.018667-4.096-21.845333 3.982222-15.189333 17.806222l183.125333 380.017778c6.656 13.880889 16.554667 13.368889 22.016-1.137778 0 0 30.264889-80.725333 58.936889-132.721778l105.870222 90.339556c10.126222 8.647111 25.543111 7.395556 34.304-2.56l20.935111-24.120889a24.007111 24.007111 0 0 0-2.446222-33.962667l-105.813333-90.282667c45.397333-34.247111 112.64-70.940444 112.64-70.940444 13.767111-7.452444 12.686222-16.896-2.275556-20.935111z" fill="#005FBF" p-id="4498" data-spm-anchor-id="a313x.search_index.0.i1.11323a81iL1ho7" class=""></path></svg>