<?xml version="1.0" standalone="no"?><!DOCTYPE svg PUBLIC "-//W3C//DTD SVG 1.1//EN" "http://www.w3.org/Graphics/SVG/1.1/DTD/svg11.dtd"><svg t="1731845969461" class="icon" viewBox="0 0 1024 1024" version="1.1" xmlns="http://www.w3.org/2000/svg" p-id="53251" width="32" height="32" xmlns:xlink="http://www.w3.org/1999/xlink"><path d="M333.937778 113.777778c8.874667 0 17.464889 3.015111 24.291555 8.533333L416.426667 221.582222c4.551111 3.640889 10.24 0 16.156444 0h496.526222c20.992 0 37.944889 20.138667 37.944889 40.391111V785.066667a37.262222 37.262222 0 0 1-37.944889 36.579555H94.833778A37.262222 37.262222 0 0 1 56.888889 785.123556V150.414222C56.888889 130.161778 73.841778 113.777778 94.833778 113.777778H333.937778zM529.066667 341.333333h-34.133334a17.066667 17.066667 0 0 0-17.066666 17.066667v119.466667H358.4a17.066667 17.066667 0 0 0-17.066667 17.066666v34.133334a17.066667 17.066667 0 0 0 17.066667 17.066666h119.466667v119.466667a17.066667 17.066667 0 0 0 17.066666 17.066667h34.133334a17.066667 17.066667 0 0 0 17.066666-17.066667V546.133333h119.466667a17.066667 17.066667 0 0 0 17.066667-17.066666v-34.133334a17.066667 17.066667 0 0 0-17.066667-17.066666H546.133333V358.4a17.066667 17.066667 0 0 0-17.066666-17.066667z" fill="#1296db" p-id="53252"></path></svg>