<?xml version="1.0" standalone="no"?><!DOCTYPE svg PUBLIC "-//W3C//DTD SVG 1.1//EN" "http://www.w3.org/Graphics/SVG/1.1/DTD/svg11.dtd"><svg t="1714584995631" class="icon" viewBox="0 0 1024 1024" version="1.1" xmlns="http://www.w3.org/2000/svg" p-id="33434" width="32" height="32" xmlns:xlink="http://www.w3.org/1999/xlink"><path d="M1022.2 279.2H0v51.2h1024V314v542.2c0 51.4-41.7 93.1-93.1 93.1H93.1c-51.4 0-93.1-41.7-93.1-93.1V167.5c0-51.5 41.7-93.1 93.1-93.1h302.6c48.2 0 87.9 36.7 92.6 83.8h0.1v-0.2 2l0.2 2.9c2.5 23.7 22.5 41.6 46.3 41.6h396c45.1 0 82.7 32.1 91.3 74.7zM372.4 646.7h116.3V763c0 12.9 10.4 23.3 23.3 23.3s23.3-10.4 23.3-23.3V646.7h116.3c12.9 0 23.3-10.4 23.3-23.3s-10.4-23.3-23.3-23.3H535.3V483.8c0-12.9-10.4-23.3-23.3-23.3s-23.3 10.4-23.3 23.3v116.4H372.4c-12.4 0.6-22.2 10.8-22.2 23.3 0 12.4 9.8 22.7 22.2 23.2z m0 0" fill="#1296DB" p-id="33435" data-spm-anchor-id="a313x.search_index.0.i38.6ab53a81Gb81DZ" class=""></path></svg>