<svg width="40" height="40" xmlns="http://www.w3.org/2000/svg" data-spm-anchor-id="a313x.search_index.0.i6.69e63a81HKP5Fe" p-id="6880" version="1.1" class="icon" t="1733221421676">

 <g>
  <title>Layer 1</title>
  <path stroke="null" id="svg_1" data-spm-anchor-id="a313x.search_index.0.i4.69e63a81HKP5Fe" p-id="6881" fill="#1296db" d="m21.17942,11.29748l7.83291,17.40504l-3.48272,0l-1.6153,-3.60664l-7.9547,0l-1.49351,3.60664l-3.47844,0l7.33507,-17.40504l2.85668,0zm-1.36745,4.60018l-2.54901,6.02745l5.22194,0l-2.6708,-6.02959l-0.00214,0.00214z"/>
  <path stroke="null" id="svg_2" data-spm-anchor-id="a313x.search_index.0.i5.69e63a81HKP5Fe" p-id="6882" fill="#1296db" d="m6.37516,26.41524l-0.00389,7.0772l7.07915,0l0,1.95086l-9.02611,0l0,-9.02806l1.95085,0zm29.20053,0l0,9.00859l-0.28426,0l0,0.01947l-9.00859,0l0,-1.94891l7.07721,-0.00195l0,-7.0772l2.21564,0zm0,-21.85854l0,9.02806l-2.2137,0l-0.00194,-7.07915l-7.07721,0l0,-1.94891l9.29285,0zm-22.12332,0l0,1.95086l-7.07915,-0.00389l0,7.07915l-1.94891,0l0,-9.02612l9.02806,0z"/>
 </g>
</svg>