<svg width="40" height="40" xmlns="http://www.w3.org/2000/svg" p-id="15630" version="1.1" class="icon" t="1732361125336">

 <g>
  <title>Layer 1</title>
  <path stroke="null" id="svg_1" p-id="15631" fill="#1296db" d="m12.30611,8.22372a4.7804,4.41758 0 0 1 4.50801,-2.94407l3.18587,0c2.08038,0 3.85013,1.22915 4.50801,2.94407l1.86374,0a3.18587,2.94407 0 0 1 3.18587,2.94407l0,4.4161a3.18587,2.94407 0 0 1 3.18587,2.94407l0,13.24831a3.18587,2.94407 0 0 1 -3.18587,2.94407l-12.7435,0a3.18587,2.94407 0 0 1 -3.18587,-2.94407l-3.18587,0a3.18587,2.94407 0 0 1 -3.18587,-2.94407l0,-17.66442a3.18587,2.94407 0 0 1 3.18587,-2.94407l1.86374,0zm0,2.94407l-1.22656,0a0.63717,0.58881 0 0 0 -0.63717,0.58881l0,16.48679c0,0.32385 0.28673,0.58881 0.63717,0.58881l2.5487,0l0,-10.30424a3.18587,2.94407 0 0 1 3.18587,-2.94407l9.55762,0l0,-3.82729a0.63717,0.58881 0 0 0 -0.63717,-0.58881l-1.22656,0a4.7804,4.41758 0 0 1 -4.50801,2.94407l-3.18587,0a4.7804,4.41758 0 0 1 -4.50801,-2.94407zm4.50801,-2.94407a1.59294,1.47203 0 1 0 0,2.94407l3.18587,0a1.59294,1.47203 0 0 0 0,-2.94407l-3.18587,0zm0,10.89306l0,12.07069c0,0.32385 0.28673,0.58881 0.63717,0.58881l11.46915,0a0.63717,0.58881 0 0 0 0.63717,-0.58881l0,-12.07069a0.63717,0.58881 0 0 0 -0.63717,-0.58881l-11.46915,0a0.63717,0.58881 0 0 0 -0.63717,0.58881zm3.18587,6.77136l6.37175,0a1.59294,1.47203 0 0 1 0,2.94407l-6.37175,0a1.59294,1.47203 0 0 1 0,-2.94407zm0,-4.4161l6.37175,0a1.59294,1.47203 0 0 1 0,2.94407l-6.37175,0a1.59294,1.47203 0 0 1 0,-2.94407z"/>
 </g>
</svg>