<svg width="40" height="40" xmlns="http://www.w3.org/2000/svg" p-id="8780" version="1.1" class="icon" t="1733240346785">
 <g>
  <title>Layer 1</title>
  <path stroke="null" id="svg_1" data-spm-anchor-id="a313x.search_index.0.i19.69e63a81HKP5Fe" p-id="8781" fill="#1296db" d="m20,4.54543a15.45457,15.45457 0 1 0 15.45457,15.45457a15.47223,15.47223 0 0 0 -15.45457,-15.45457zm0,28.53135a13.07677,13.07677 0 1 1 13.07677,-13.07677a13.09223,13.09223 0 0 1 -13.07677,13.07677z"/>
  <path stroke="null" id="svg_2" data-spm-anchor-id="a313x.search_index.0.i18.69e63a81HKP5Fe" p-id="8782" fill="#0e932e" d="m15.043,11.88666a1.14158,1.32637 0 0 0 -1.81229,1.0735l0,14.08198a1.14158,1.32637 0 0 0 1.81229,1.0712l8.33333,-7.04099a1.14158,1.32637 0 0 0 0,-2.14471l-8.33333,-7.03869l0,-0.0023l0,0.00002z"/>
  <path transform="rotate(90 25.5962 19.993)" stroke="null" id="svg_3" d="m18.90945,18.90736l13.28807,0l0,0c1.61026,-0.03179 1.78643,0.61347 1.78643,1.08617c0,0.47271 -0.42971,1.08616 -1.78643,1.08616l-13.28807,0l0,0c-1.52741,0 -1.70109,-0.67705 -1.70109,-1.11796c0,-0.44092 0.38704,-1.05437 1.70109,-1.05437z" fill="#ff9d42"/>
  <path transform="rotate(45 23.6823 25.5933)" stroke="null" id="svg_4" d="m21.2137,24.60789l4.83358,0l0,0c0.63321,0 1.14653,0.4412 1.14653,0.98545c0,0.54425 -0.51332,0.98545 -1.14653,0.98545l-4.83358,0l0,0c-0.63321,0 -1.04299,-0.49884 -1.04299,-1.04309c0,-0.54425 0.40978,-0.92781 1.04299,-0.92781z" fill="#ff9d42"/>
  <path transform="rotate(135 27.6849 25.573)" stroke="null" id="svg_11" d="m25.21635,24.6181l4.83358,0l0,0c0.63321,0 1.14653,0.42753 1.14653,0.95491c0,0.52738 -0.51332,0.95491 -1.14653,0.95491l-4.83358,0l0,0c-0.63321,0 -1.04299,-0.48338 -1.04299,-1.01076c0,-0.52739 0.40978,-0.89906 1.04299,-0.89906z" fill="#ff9d42"/>
 </g>

</svg>