<svg width="40" height="40" xmlns="http://www.w3.org/2000/svg" p-id="8780" version="1.1" class="icon" t="1733240346785">
 <g>
  <title>Layer 1</title>
  <path stroke="null" id="svg_1" data-spm-anchor-id="a313x.search_index.0.i19.69e63a81HKP5Fe" p-id="8781" fill="#1296db" d="m20,4.54543a15.45457,15.45457 0 1 0 15.45457,15.45457a15.47223,15.47223 0 0 0 -15.45457,-15.45457zm0,28.53135a13.07677,13.07677 0 1 1 13.07677,-13.07677a13.09223,13.09223 0 0 1 -13.07677,13.07677z"/>
  <path stroke="null" id="svg_2" data-spm-anchor-id="a313x.search_index.0.i18.69e63a81HKP5Fe" p-id="8782" fill="#0e932e" d="m17.04663,12.77108a1.18178,1.18178 0 0 0 -1.8761,0.95648l0,12.54691a1.18178,1.18178 0 0 0 1.8761,0.95443l8.62677,-6.27346a1.18178,1.18178 0 0 0 0,-1.91092l-8.62677,-6.27141l0,-0.00205l0,0.00002z"/>
  <path transform="rotate(90 25.0958 19.9861)" stroke="null" id="svg_3" d="m19.16052,18.93804l11.79413,0l0,0c1.35569,-0.03069 1.58559,0.59224 1.58559,1.04859c0,0.45635 -0.3814,1.04858 -1.58559,1.04858l-11.79413,0l0,0c-1.35569,0 -1.50984,-0.65362 -1.50984,-1.07928c0,-0.42566 0.34353,-1.01789 1.50984,-1.01789z" fill="#0e932e"/>
 </g>

</svg>