<svg width="40" height="40" xmlns="http://www.w3.org/2000/svg" p-id="20485" version="1.1" class="icon" t="1737720820136">

 <g>
  <title>Layer 1</title>
  <path stroke="null" id="svg_1" p-id="20486" fill="#1296db" d="m21.27207,13.11422a1.40018,1.40018 0 0 0 -2.55953,0l-5.60072,12.60161a1.40018,1.40018 0 1 0 2.55953,1.13695l1.49819,-3.36883l5.64692,0l1.49819,3.36883a1.40018,1.40018 0 1 0 2.55813,-1.13695l-5.60072,-12.60161zm-1.27976,4.01571l1.5794,3.55366l-3.1588,0l1.5794,-3.55366z"/>
  <path stroke="null" id="svg_2" p-id="20487" fill="#1296db" d="m20,4.72871c-8.43433,0 -15.27129,6.83696 -15.27129,15.27129s6.83696,15.27129 15.27129,15.27129s15.27129,-6.83696 15.27129,-15.27129s-6.83696,-15.27129 -15.27129,-15.27129zm-12.21703,15.27129a12.21703,12.21703 0 1 1 24.43406,0a12.21703,12.21703 0 0 1 -24.43406,0z"/>
 </g>
</svg>