<?xml version="1.0" standalone="no"?><!DOCTYPE svg PUBLIC "-//W3C//DTD SVG 1.1//EN" "http://www.w3.org/Graphics/SVG/1.1/DTD/svg11.dtd"><svg t="1731841050585" class="icon" viewBox="0 0 1024 1024" version="1.1" xmlns="http://www.w3.org/2000/svg" p-id="12084" width="32" height="32" xmlns:xlink="http://www.w3.org/1999/xlink"><path d="M899.072 304.64a73.216 73.216 0 0 0-53.248-22.528H537.6L459.776 204.8h-281.6c-20.48 0-38.4 7.68-53.248 22.528-15.36 14.848-22.528 33.28-22.528 54.784v459.776c0 21.504 7.68 39.936 22.528 54.784 14.848 15.36 32.768 22.528 53.248 22.528h668.16c20.48 0 38.4-7.68 53.248-22.528 14.848-14.848 22.528-33.28 22.528-54.784V359.424c-0.512-21.504-8.192-39.936-23.04-54.784z m-183.808 173.056l-200.192 200.192c-12.8 12.8-33.28 12.8-45.568 0l-34.816-34.816-101.376-101.376a15.4624 15.4624 0 0 1 0-22.016l35.84-35.84c6.144-6.144 15.872-6.144 22.016 0l93.184 93.184c4.608 4.608 11.776 4.608 16.384 0l157.184-157.184c6.144-6.144 15.872-6.144 22.016 0l35.84 35.84c5.632 5.632 5.632 15.872-0.512 22.016z" p-id="12085" fill="#1296db"></path></svg>