<?xml version="1.0" standalone="no"?><!DOCTYPE svg PUBLIC "-//W3C//DTD SVG 1.1//EN" "http://www.w3.org/Graphics/SVG/1.1/DTD/svg11.dtd"><svg t="1731863276640" class="icon" viewBox="0 0 1024 1024" version="1.1" xmlns="http://www.w3.org/2000/svg" p-id="80386" width="32" height="32" xmlns:xlink="http://www.w3.org/1999/xlink"><path d="M967.26016 779.21792h-40.00768V194.57024c0-28.71296-25.4464-53.79584-54.51264-53.79584H203.6224v-39.46496c0-28.66688-25.4464-53.79584-54.56896-53.79584-29.07648 0-54.52288 25.12896-54.52288 53.79584v39.46496h-40.00768C25.4464 140.7744 0 165.85728 0 194.57024s25.4464 53.79584 54.52288 53.79584h40.00768v581.06368c0 28.672 25.4464 53.80096 54.52288 53.80096h669.1072v39.45984c0 28.672 25.49248 53.80096 54.56896 53.80096 29.07648 0 54.51776-25.12896 54.51776-50.22208v-39.45984h40.00256c29.12256 0 54.56384-25.07776 54.56384-53.80096 0.01024-28.70784-25.43616-53.79072-54.5536-53.79072z m-149.09952 0H203.6224V248.36608h614.53824v530.85184z m-403.6608-326.36928c34.15552 0 61.82912-27.25888 61.87008-60.96384v-0.04608c0-33.65888-27.66848-61.00992-61.77792-61.00992-34.15552 0-61.87008 27.25888-61.87008 60.96384v0.04608c-0.04608 33.70496 27.6224 61.00992 61.77792 61.00992z m-138.16832 236.69248l472.74496 3.57888c3.63008 0 10.9312-3.57888 10.9312-7.15776 7.26016 0 7.26016-3.58912 3.63008-7.16288L679.99744 459.9808c-3.63008-7.168-7.26016-10.752-14.5664-10.752-7.26016 0-10.89024 3.584-14.5152 7.168l-94.58176 139.88864c-3.62496 7.168-14.5152 7.168-18.19136 3.57888L378.1632 520.98048c-7.25504-3.57888-14.56128 0-18.19136 3.584l-98.16064 143.47264c-3.62496 3.57376-3.62496 10.752 0 14.33088 3.6352 3.59424 7.26528 7.17312 14.52032 7.17312z" fill="#005FBF" p-id="80387"></path></svg>