<svg width="1024" height="1024" xmlns="http://www.w3.org/2000/svg" p-id="3760" version="1.1" class="icon" t="1732271213373">

 <g>
  <title>Layer 1</title>
  <path stroke="null" id="svg_1" fill="#1296db" p-id="3761" d="m259.33335,584.19047l-36.09523,0l0,216.57142l36.09523,0a36.09524,36.09524 0 0 0 36.09524,-36.09523l0,-144.38095a36.09524,36.09524 0 0 0 -36.09524,-36.09524m0,-72.19047a108.28571,108.28571 0 0 1 108.28571,108.28571l0,144.38095a108.28571,108.28571 0 0 1 -108.28571,108.28571l-108.28571,0l0,-360.95237l108.28571,0zm505.33331,144.38095a36.09524,36.09524 0 1 1 36.09523,-36.09524l72.19048,0a108.28571,108.28571 0 1 0 -108.28571,108.28571a36.09524,36.09524 0 1 1 -36.09524,36.09524l-72.19047,0a108.28571,108.28571 0 1 0 108.28571,-108.28571zm-252.66666,-72.19048a36.09524,36.09524 0 0 1 36.09524,36.09524l0,144.38095a36.09524,36.09524 0 0 1 -72.19048,0l0,-144.38095a36.09524,36.09524 0 0 1 36.09524,-36.09524m0,-72.19047a108.28571,108.28571 0 0 0 -108.28571,108.28571l0,144.38095a108.28571,108.28571 0 0 0 216.57142,0l0,-144.38095a108.28571,108.28571 0 0 0 -108.28571,-108.28571zm180.47618,-360.95237l180.47619,180.47619l0,144.38094l-72.19048,0l0,-114.4219l-138.24475,-138.24475l-439.27902,0l0,252.66665l-72.19048,0l0,-324.85713l541.42854,0z"/>
 </g>
</svg>