<?xml version="1.0" standalone="no"?><!DOCTYPE svg PUBLIC "-//W3C//DTD SVG 1.1//EN" "http://www.w3.org/Graphics/SVG/1.1/DTD/svg11.dtd"><svg t="1714585735882" class="icon" viewBox="0 0 1024 1024" version="1.1" xmlns="http://www.w3.org/2000/svg" p-id="45718" data-spm-anchor-id="a313x.search_index.0.i56.6ab53a81Gb81DZ" width="32" height="32" xmlns:xlink="http://www.w3.org/1999/xlink"><path d="M442.5 821.13c-101.13 0-196.2-39.38-267.69-110.87-147.62-147.59-147.62-387.79 0-535.39C246.3 103.38 341.37 64 442.5 64c101.1 0 196.17 39.38 267.67 110.87s110.87 166.56 110.87 267.69-39.38 196.2-110.87 267.69S543.61 821.13 442.5 821.13z m0-670.31c-74.74 0-149.48 28.45-206.39 85.35-113.81 113.81-113.81 298.97 0 412.77s298.94 113.83 412.75 0c113.81-113.81 113.81-298.97 0-412.77-56.9-56.9-131.65-85.35-206.36-85.35z" fill="#1296DB" p-id="45719" data-spm-anchor-id="a313x.search_index.0.i53.6ab53a81Gb81DZ" class=""></path><path d="M442.5 623.41c-47.81 0-95.57-18.18-131.96-54.56-16.94-16.94-16.94-44.37 0-61.31 16.94-16.94 44.37-16.94 61.31 0 38.92 38.9 102.32 38.95 141.3 0 16.94-16.94 44.37-16.94 61.31 0 16.94 16.94 16.94 44.4 0 61.31-36.39 36.38-84.2 54.56-131.96 54.56zM916.55 960c-11.09 0-22.19-4.23-30.65-12.7L648.86 710.26c-16.94-16.94-16.94-44.37 0-61.31s44.37-16.94 61.31 0l237.04 237.04c16.94 16.94 16.94 44.37 0 61.31-8.47 8.47-19.56 12.7-30.66 12.7z" fill="#1296DB" p-id="45720" data-spm-anchor-id="a313x.search_index.0.i52.6ab53a81Gb81DZ" class=""></path></svg>