<?xml version="1.0" standalone="no"?><!DOCTYPE svg PUBLIC "-//W3C//DTD SVG 1.1//EN" "http://www.w3.org/Graphics/SVG/1.1/DTD/svg11.dtd"><svg t="1714580665861" class="icon" viewBox="0 0 1024 1024" version="1.1" xmlns="http://www.w3.org/2000/svg" p-id="6049" data-spm-anchor-id="a313x.search_index.0.i13.6ab53a81Gb81DZ" width="32" height="32" xmlns:xlink="http://www.w3.org/1999/xlink"><path d="M511.3856 102.638933c224.119467 0 408.200533 181.725867 408.200533 407.722667 0 36.352-4.7104 71.611733-13.585066 105.130667a12.288 12.288 0 0 0-0.3072-0.3072l-18.0224-18.0224a24.712533 24.712533 0 0 0-18.056534-6.9632c-6.7584 0-13.7216 2.2528-19.0464 5.7344l-28.910933 18.432a166.0928 166.0928 0 0 0-23.381333-9.8304l-7.3728-33.211734c-2.2528-12.0832-12.9024-25.1904-27.067734-25.1904h-25.6c-14.165333 0-22.766933 13.312-25.634133 25.6l-8.192 32.768a157.218133 157.218133 0 0 0-25.019733 10.478934l-29.525334-18.8416a34.7136 34.7136 0 0 0-19.080533-5.7344 24.712533 24.712533 0 0 0-18.0224 6.9632l-18.056533 18.0224c-10.0352 10.0352-6.5536 25.6 0 36.283733l18.670933 31.1296c-3.4816 7.168-6.5536 14.336-9.0112 21.9136l-32.802133 7.3728c-12.288 2.2528-25.429333 12.936533-25.429334 27.067733v25.6c0 14.1312 13.312 22.766933 25.6 25.6l33.245867 8.192c2.2528 6.997333 5.12 13.755733 8.3968 20.514134l-18.670933 31.1296c-6.5536 10.683733-10.0352 26.248533 0 36.283733l18.056533 18.0224 1.297067 1.092267c-32.768 8.465067-67.1744 12.970667-102.673067 12.970666-223.607467 0-408.1664-181.76-408.1664-407.722666 0-225.9968 182.203733-408.200533 408.1664-408.200534z m-2.1504 152.576a32.1536 32.1536 0 0 0-31.5392 31.505067v207.189333L256 594.1248c-16.4864 6.144-22.596267 23.074133-16.4864 40.0384 6.144 12.6976 16.964267 18.807467 29.184 18.807467 4.232533 0 8.465067 0 12.731733-1.877334l240.571734-109.226666c10.3424-4.232533 18.8416-16.930133 18.8416-29.184V286.72a32.1536 32.1536 0 0 0-31.573334-31.573333z" fill="#F1C15D" p-id="6050" data-spm-anchor-id="a313x.search_index.0.i5.6ab53a81Gb81DZ" class=""></path><path d="M761.514667 580.266667c11.776 0 20.650667 10.922667 22.528 20.992l6.144 27.648c6.656 2.218667 13.141333 4.949333 19.456 8.192l24.064-15.36c4.437333-2.901333 10.24-4.778667 15.872-4.778667a20.5824 20.5824 0 0 1 15.018666 5.802667l15.018667 15.018666c8.362667 8.362667 5.461333 21.333333 0 30.208l-14.848 24.746667c3.242667 6.314667 6.144 12.8 8.192 19.626667l27.306667 6.144c10.069333 1.877333 21.162667 10.752 20.992 22.528v21.333333c0 11.776-11.093333 18.944-21.333334 21.333333l-27.648 6.826667c-2.048 6.314667-4.778667 12.458667-7.68 18.261333l14.848 24.746667c5.461333 8.874667 8.362667 21.845333 0 30.208l-15.018666 15.018667a20.309333 20.309333 0 0 1-15.018667 5.802666 29.013333 29.013333 0 0 1-15.872-4.778666l-24.064-15.36c-6.144 3.072-12.629333 5.802667-19.285333 8.021333l-6.144 27.818667c-1.877333 10.24-10.752 21.162667-22.528 21.162666h-21.333334c-11.776 0-18.944-11.093333-21.333333-21.333333l-6.826667-27.306667a116.770133 116.770133 0 0 1-20.821333-8.704l-24.576 15.701334c-4.437333 2.901333-10.24 4.778667-15.872 4.778666a20.821333 20.821333 0 0 1-15.018667-5.802666l-15.018666-15.018667c-8.362667-8.362667-5.461333-21.333333 0-30.208l15.530666-25.941333c-2.730667-5.632-5.12-11.264-6.997333-17.066667l-27.648-6.826667c-10.24-2.389333-21.333333-9.557333-21.333333-21.333333v-21.333333c0-11.776 10.922667-20.650667 21.162666-22.528l27.306667-6.144c2.048-6.314667 4.608-12.288 7.509333-18.261334l-15.530666-25.941333c-5.461333-8.874667-8.362667-21.845333 0-30.208l15.018666-15.018667a20.5824 20.5824 0 0 1 15.018667-5.802666c5.632 0 11.264 1.706667 15.872 4.778666l24.576 15.701334c6.656-3.413333 13.653333-6.485333 20.821333-8.704l6.826667-27.306667c2.389333-10.24 9.557333-21.333333 21.333333-21.333333z m-10.410667 119.296a51.5072 51.5072 0 1 0 0 102.912 51.473067 51.473067 0 1 0 0-102.912z" fill="#1296DB" p-id="6051" data-spm-anchor-id="a313x.search_index.0.i12.6ab53a81Gb81DZ" class=""></path></svg>