<?xml version="1.0" standalone="no"?><!DOCTYPE svg PUBLIC "-//W3C//DTD SVG 1.1//EN" "http://www.w3.org/Graphics/SVG/1.1/DTD/svg11.dtd"><svg t="1714581009105" class="icon" viewBox="0 0 1031 1024" version="1.1" xmlns="http://www.w3.org/2000/svg" p-id="14686" data-spm-anchor-id="a313x.search_index.0.i23.6ab53a81Gb81DZ" width="32.21875" height="32" xmlns:xlink="http://www.w3.org/1999/xlink"><path d="M686.261369 514.696027A173.526089 173.526089 0 1 0 392.149354 637.2427a163.232169 163.232169 0 0 0 122.056486 49.018669A174.996649 174.996649 0 0 0 686.261369 514.696027z m343.130685-70.586884v147.056008c0 13.235041-6.372427 19.607468-19.117281 25.979894l-122.546673 19.117281-25.489708 57.84203S926.452848 778.416467 931.354715 784.298708a29.411202 29.411202 0 0 1 0 32.352321 885.767353 885.767353 0 0 1-107.841072 109.801819c-12.744854 6.372427-25.489708 12.744854-38.724749 0l-89.704164-70.586883L637.2427 882.336046s-19.117281 109.311632-19.117281 122.056486-12.744854 19.607468-25.489708 19.607468H437.736716a28.430828 28.430828 0 0 1-25.979895-19.607468L392.149354 882.336046l-58.332217-25.489708s-83.331738 64.214457-98.037338 70.586884a29.411202 29.411202 0 0 1-32.352322 0c-6.372427-6.372427-102.939205-102.939205-109.311632-115.68406a29.901388 29.901388 0 0 1 0-32.352321c8.82336-7.3528 73.037817-93.135472 73.037817-93.135472l-25.489708-64.214457a1197.035902 1197.035902 0 0 1-122.546673-19.117281c-12.744854 6.372427-19.117281-6.372427-19.117281-19.607467v-147.056008c0-13.235041 6.372427-19.607468 19.117281-25.979895L141.663954 392.149354l25.489708-64.704644S102.939205 245.093346 98.037338 238.230732a29.411202 29.411202 0 0 1 0-32.352321c4.901867-6.372427 107.841072-102.939205 114.2135-115.68406a20.097654 20.097654 0 0 1 25.979894 0C245.093346 98.037338 327.934897 160.781235 327.934897 160.781235l58.332216-25.489708s12.744854-102.939205 19.117281-122.546673c12.744854-6.372427 19.117281-12.744854 32.352322-12.744854h147.056008c13.235041 0 19.607468 6.372427 25.979894 19.117281l19.117281 122.546673 56.37147 25.489708S772.04404 102.939205 784.298708 98.037338a29.411202 29.411202 0 0 1 32.352321 0c6.372427 6.372427 102.939205 102.939205 109.311633 115.68406a29.901388 29.901388 0 0 1 0 32.352321c-6.372427 6.372427-70.586884 90.194351-70.586884 90.194352L882.336046 399.011967s109.311632 19.117281 122.056486 19.117281 25.979895 6.372427 25.979895 25.979895z" fill="#1296DB" p-id="14687" data-spm-anchor-id="a313x.search_index.0.i20.6ab53a81Gb81DZ" class=""></path></svg>