<svg width="34" height="34" xmlns="http://www.w3.org/2000/svg" class="icon">

 <g>
  <title>background</title>
  <rect fill="none" id="canvas_background" height="36" width="36" y="-1" x="-1"/>
 </g>
 <g>
  <title>Layer 1</title>
  <path stroke="null" id="svg_1" fill="#005fbf" d="m0.581282,28.966361c0,2.800345 1.693271,4.452359 4.533155,4.452359l23.771129,0c2.840742,0 4.533155,-1.652014 4.533155,-4.452359l0,-23.93272c0,-2.800345 -1.693271,-4.452359 -4.533155,-4.452359l-23.771129,0c-2.840742,0 -4.533155,1.652014 -4.533155,4.452359l0,23.93272zm3.243861,-24.697701l0,1.529961c0,-1.229126 0.725442,-1.974337 1.93394,-1.974337l22.481836,0c1.208497,0 1.93394,0.745211 1.93394,1.974337l0,22.40104c0,1.229126 -0.725442,1.974337 -1.93394,1.974337l-22.481836,0c-1.208498,0 -1.93394,-0.745211 -1.93394,-1.974337l0,-23.931001z"/>
 </g>
</svg>