<?xml version="1.0" standalone="no"?><!DOCTYPE svg PUBLIC "-//W3C//DTD SVG 1.1//EN" "http://www.w3.org/Graphics/SVG/1.1/DTD/svg11.dtd"><svg t="1732094602627" class="icon" viewBox="0 0 1024 1024" version="1.1" xmlns="http://www.w3.org/2000/svg" p-id="102753" width="32" height="32" xmlns:xlink="http://www.w3.org/1999/xlink"><path d="M585.142857 585.142857c0 36.571429 36.571429 73.142857 73.142857 73.142857h292.571429c36.571429 0 73.142857-36.571429 73.142857-73.142857V512c0-36.571429-36.571429-73.142857-73.142857-73.142857H658.285714c-36.571429 0-73.142857 36.571429-73.142857 73.142857H292.571429V292.571429h146.285714c43.885714 0 73.142857-29.257143 73.142857-73.142858V73.142857c0-43.885714-29.257143-73.142857-73.142857-73.142857H73.142857C29.257143 0 0 29.257143 0 73.142857v146.285714c0 43.885714 29.257143 73.142857 73.142857 73.142858h146.285714v585.142857c0 43.885714 29.257143 73.142857 73.142858 73.142857h292.571428c0 36.571429 36.571429 73.142857 73.142857 73.142857h292.571429c36.571429 0 73.142857-36.571429 73.142857-73.142857v-73.142857c0-36.571429-36.571429-73.142857-73.142857-73.142857H658.285714c-36.571429 0-73.142857 36.571429-73.142857 73.142857H292.571429V585.142857h292.571428z m73.142857-73.142857h292.571429v73.142857H658.285714V512z m0 365.714286h292.571429v73.142857H658.285714v-73.142857z" fill="#ff0000" p-id="102754"></path></svg>