<svg width="30" height="30" xmlns="http://www.w3.org/2000/svg" p-id="4309" version="1.1" class="icon" t="1734266416214">

 <g>
  <title>Layer 1</title>
  <path stroke="null" stroke-width="0" id="svg_1" fill="#8a8a8a" p-id="4310" d="m13.15313,16.86124a0.83368,0.83368 0 0 0 -0.30904,-0.20842a0.91273,0.91273 0 0 0 -0.33778,-0.06468l-6.25976,0a0.93429,0.93429 0 1 0 0,1.86859l3.98153,0l-4.8727,4.86551a0.93429,0.93429 0 0 0 0,1.32238a0.93429,0.93429 0 0 0 1.32238,0l4.8727,-4.8727l0,4.21151a0.93429,0.93429 0 1 0 1.86859,0l0,-6.46818a0.89117,0.89117 0 0 0 -0.07187,-0.35934a0.99897,0.99897 0 0 0 -0.19405,-0.29466zm10.60063,-5.3111l-3.98153,0l4.8727,-4.8727a0.93429,0.93429 0 0 0 -1.32238,-1.32238l-4.8727,4.8727l0,-4.21151a0.93429,0.93429 0 0 0 -1.86859,0l0,6.46818a0.89117,0.89117 0 0 0 0.07187,0.35934a0.99897,0.99897 0 0 0 0.19405,0.29466a0.83368,0.83368 0 0 0 0.28029,0.18686a0.89117,0.89117 0 0 0 0.35934,0.07187l6.2382,0a0.93429,0.93429 0 0 0 0,-1.86859l0.02875,0.02156z"/>
 </g>
</svg>