<svg width="30" height="30" xmlns="http://www.w3.org/2000/svg" p-id="7085" version="1.1" class="icon" t="1734266813513">

 <g>
  <title>Layer 1</title>
  <path stroke="null" id="svg_1" p-id="7086" fill="#8a8a8a" d="m21.96924,24.95606l-2.98682,0c-0.59736,0 -0.99561,-0.39824 -0.99561,-0.99561s0.39824,-0.99561 0.99561,-0.99561l2.98682,0c0.59736,0 0.99561,-0.39824 0.99561,-0.99561l0,-2.98682c0,-0.59736 0.39824,-0.99561 0.99561,-0.99561s0.99561,0.39824 0.99561,0.99561l0,2.98682c0,1.69253 -1.29429,2.98682 -2.98682,2.98682zm-10.95167,0l-2.98682,0c-1.69253,0 -2.98682,-1.29429 -2.98682,-2.98682l0,-2.98682c0,-0.59736 0.39824,-0.99561 0.99561,-0.99561s0.99561,0.39824 0.99561,0.99561l0,2.98682c0,0.59736 0.39824,0.99561 0.99561,0.99561l2.98682,0c0.59736,0 0.99561,0.39824 0.99561,0.99561s-0.39824,0.99561 -0.99561,0.99561zm12.94288,-12.94288c-0.59736,0 -0.99561,-0.39824 -0.99561,-0.99561l0,-2.98682c0,-0.59736 -0.39824,-0.99561 -0.99561,-0.99561l-2.98682,0c-0.59736,0 -0.99561,-0.39824 -0.99561,-0.99561s0.39824,-0.99561 0.99561,-0.99561l2.98682,0c1.69253,0 2.98682,1.29429 2.98682,2.98682l0,2.98682c0,0.59736 -0.39824,0.99561 -0.99561,0.99561zm-17.92092,0c-0.59736,0 -0.99561,-0.39824 -0.99561,-0.99561l0,-2.98682c0,-1.69253 1.29429,-2.98682 2.98682,-2.98682l2.98682,0c0.59736,0 0.99561,0.39824 0.99561,0.99561s-0.39824,0.99561 -0.99561,0.99561l-2.98682,0c-0.59736,0 -0.99561,0.39824 -0.99561,0.99561l0,2.98682c0,0.59736 -0.39824,0.99561 -0.99561,0.99561z"/>
 </g>
</svg>