<svg width="30" height="30" xmlns="http://www.w3.org/2000/svg" p-id="7355" version="1.1" class="icon" t="1734267073128">

 <g>
  <title>Layer 1</title>
  <path stroke="null" id="svg_1" p-id="7356" fill="#8a8a8a" d="m24.02743,5.04152l-14.06767,0a0.93369,0.93369 0 0 0 -0.93369,0.93369l0,3.05007l1.98348,0l0,-1.99188l11.96219,0l0,11.95814l-1.99188,0l0,-9.02976a0.93369,0.93369 0 0 0 -0.93369,-0.93369l-14.07234,0a0.93369,0.93369 0 0 0 -0.93369,0.93369l0,14.063a0.93369,0.93369 0 0 0 0.93369,0.93369l14.07078,0a0.93369,0.93369 0 0 0 0.93369,-0.93369l0,-3.04509l3.04789,0a0.93369,0.93369 0 0 0 0.93369,-0.93369l0,-14.07078a0.93369,0.93369 0 0 0 -0.93245,-0.93369zm-16.99324,17.92694l0,-11.93542l11.95285,0l0,11.93604l-11.95285,-0.00062z"/>
 </g>
</svg>