<svg width="40" height="40" xmlns="http://www.w3.org/2000/svg" p-id="13779" version="1.1" class="icon" t="1738058707650">

 <g>
  <title>Layer 1</title>
  <g stroke="null" id="svg_5">
   <path stroke="null" id="svg_1" fill="#d4237a" p-id="13780" d="m20.01569,28.96163m-2.56072,0a2.56072,2.56072 0 1 0 5.12143,0a2.56072,2.56072 0 1 0 -5.12143,0z"/>
   <path stroke="null" id="svg_2" fill="#d4237a" p-id="13781" d="m13.55741,23.21884l2.00841,1.86405c1.19877,-1.29291 2.8306,-2.00213 4.59423,-2.00213c1.63183,0 3.18207,0.62763 4.35573,1.76363l1.90171,-1.97075c-1.68832,-1.63183 -3.91011,-2.52934 -6.25744,-2.52934c-2.49795,-0.00628 -4.90176,1.04186 -6.60263,2.87453z"/>
   <path stroke="null" id="svg_3" fill="#d4237a" p-id="13782" d="m9.34604,18.67482l2.31594,2.31594c2.22807,-2.22807 5.19675,-3.45822 8.35371,-3.45822s6.11936,1.23015 8.35371,3.45822l2.31594,-2.31594c-2.84943,-2.84943 -6.63401,-4.41849 -10.66338,-4.41849c-4.03564,0 -7.8265,1.56907 -10.67593,4.41849z"/>
   <path stroke="null" id="svg_4" fill="#d4237a" p-id="13783" d="m20.1726,8.47589c-2.86825,0 -5.64236,0.57114 -8.25329,1.69459c-2.52306,1.08579 -4.77624,2.63603 -6.69678,4.61306l2.34732,2.28456c3.33897,-3.43312 7.82023,-5.32227 12.60274,-5.32227c4.63189,0 9.00644,1.78246 12.31404,5.02729l2.29084,-2.34105c-3.92267,-3.84108 -9.10686,-5.95618 -14.60487,-5.95618z"/>
  </g>
 </g>
</svg>