<svg width="40" height="40" xmlns="http://www.w3.org/2000/svg" p-id="14989" version="1.1" class="icon" t="1738058851217">

 <g>
  <title>Layer 1</title>
  <path stroke="null" id="svg_1" p-id="14990" fill="#d4237a" d="m19.93703,4.75413a15.24611,15.24611 0 0 1 0.25265,30.49222a0.25047,0.25047 0 0 1 -0.25265,-0.25265l0,-2.84884c0,-0.05663 0.03703,-0.16771 0.14593,-0.16771l0.15246,-0.00436a11.97908,11.97908 0 1 0 -12.27312,-12.16857c0,0.1089 -0.09148,0.1982 -0.20038,0.1982l-2.76608,0c-0.23087,0 -0.2875,-0.13068 -0.30057,-0.23087l0,-0.05445a15.24611,15.24611 0 0 1 15.24175,-14.96297zm-9.93175,17.44808a1.08901,1.08901 0 0 1 0.6142,0.18731l7.97589,5.42326a1.08901,1.08901 0 0 1 0,1.80122l-7.97589,5.42108a1.08901,1.08901 0 0 1 -1.70103,-0.9017l0,-10.84216a1.08901,1.08901 0 0 1 1.08901,-1.08901l-0.00218,0zm9.93175,-9.55278a0.5445,0.5445 0 0 1 0.5445,0.5445l0,6.94351l6.94351,0a0.5445,0.5445 0 0 1 0.5445,0.5445l0,2.17802a0.5445,0.5445 0 0 1 -0.5445,0.5445l-9.66603,0a0.5445,0.5445 0 0 1 -0.5445,-0.5445l0,-9.66603a0.5445,0.5445 0 0 1 0.5445,-0.5445l2.17802,0z"/>
 </g>
</svg>