<svg width="40" height="40" xmlns="http://www.w3.org/2000/svg" p-id="5186" version="1.1" class="icon" t="1738058460776">

 <g>
  <title>Layer 1</title>
  <path stroke="null" id="svg_1" p-id="5187" fill="#d4237a" d="m10.92799,19.84549c-0.6254,0 -1.12572,-0.51504 -1.12572,-1.14044s0.50768,-1.13308 1.12572,-1.13308l2.75177,0c0.37524,0 0.73577,0.1913 0.94178,0.51504l0.52239,0.80934l1.913,-4.58383c0.17658,-0.41939 0.58126,-0.69162 1.03007,-0.69898c0.45618,0 0.86085,0.26488 1.03743,0.68426l1.81735,4.17916l1.51568,-4.1203c0.16187,-0.4341 0.5739,-0.72841 1.03007,-0.74313c0.45618,-0.00736 0.88292,0.26488 1.06686,0.69162l1.60397,3.81863l3.09758,0c0.6254,0 1.12572,0.50768 1.12572,1.13308c0,0.6254 -0.50768,1.13308 -1.12572,1.13308l-3.84806,0c-0.45618,0 -0.86085,-0.27223 -1.03743,-0.69898l-0.77991,-1.86885l-1.49361,4.06879c-0.16187,0.4341 -0.56654,0.72841 -1.02272,0.74313l-0.04415,0c-0.44882,0 -0.85349,-0.26488 -1.03007,-0.68426l-1.88356,-4.33367l-1.70698,4.09087c-0.16187,0.38996 -0.51504,0.65483 -0.93442,0.69162c-0.41203,0.04415 -0.8167,-0.15451 -1.04479,-0.50768l-1.35381,-2.06015l-2.14844,0l0,0.01472zm-2.70027,-10.882c-0.40467,0 -0.73577,0.3311 -0.73577,0.73577l0,16.92265c0,0.40467 0.3311,0.73577 0.73577,0.73577l23.54456,0c0.40467,0 0.73577,-0.3311 0.73577,-0.73577l0,-16.92265c0,-0.40467 -0.3311,-0.73577 -0.73577,-0.73577l-23.54456,0zm-1.47153,-2.2073l26.48762,0c0.80934,0 1.47153,0.66219 1.47153,1.47153l0,19.86572c0,0.80934 -0.66219,1.47153 -1.47153,1.47153l-26.48762,0c-0.80934,0 -1.47153,-0.66219 -1.47153,-1.47153l0,-19.86572c0,-0.80934 0.66219,-1.47153 1.47153,-1.47153zm4.4146,24.28032l18.39418,0l0,2.2073l-18.39418,0l0,-2.2073z"/>
 </g>
</svg>