<svg width="40" height="40" xmlns="http://www.w3.org/2000/svg" p-id="14322" version="1.1" class="icon" t="1732619533631">

 <g>
  <title>Layer 1</title>
  <path stroke="null" id="svg_1" fill="#1296db" p-id="14323" d="m17.92929,25.36887c-4.20762,-3.53651 -8.15887,-6.85812 -12.20437,-10.25891c4.01911,-3.37816 7.97412,-6.696 12.12142,-10.17973l0,4.71661c2.25839,0.28277 4.39237,0.40719 6.45847,0.837c4.29434,0.88978 7.71775,2.97474 9.21077,7.40858c2.1566,6.39815 -0.39965,13.49003 -6.14554,17.01901c-0.07918,0.04901 -0.1772,0.07541 -0.3808,0.15835c0.76914,-0.9388 1.51188,-1.7381 2.13774,-2.62411c1.23665,-1.74187 1.95677,-3.67978 2.03972,-5.83638c0.07541,-1.94546 -0.78799,-3.35931 -2.41674,-4.34712c-1.90399,-1.15747 -4.03796,-1.56843 -6.2021,-1.74941c-1.50057,-0.12442 -3.01622,-0.02262 -4.61858,-0.02262l0,4.87873z"/>
 </g>
</svg>