<svg width="40" height="40" xmlns="http://www.w3.org/2000/svg" p-id="16785" version="1.1" class="icon" t="1732361347843">

 <g>
  <title>Layer 1</title>
  <path stroke="null" id="svg_1" p-id="16786" fill="#1296db" d="m34.15233,34.15865c-0.23076,0.2309 -0.53742,0.3579 -0.86354,0.3579c-0.32625,0 -0.63292,-0.12699 -0.86354,-0.35775l-3.8677,-3.86945c-1.27714,0.99546 -2.84689,1.53765 -4.47988,1.53765c-1.9491,0 -3.78153,-0.75931 -5.15984,-2.13821c-1.37816,-1.37887 -2.13719,-3.21232 -2.13719,-5.1623c0,-1.95012 0.75889,-3.7834 2.13719,-5.1623c1.37816,-1.37904 3.21057,-2.13836 5.15984,-2.13836c1.9491,0 3.78153,0.75931 5.15984,2.13836c1.37816,1.37887 2.13719,3.21218 2.13719,5.1623c0,1.422 -0.40144,2.78026 -1.16541,3.9593l3.94306,3.9451c0.47601,0.47632 0.47601,1.25131 -0.00003,1.72778zm-10.07465,-4.77523c1.29659,0 2.5157,-0.50519 3.43262,-1.42256s1.42186,-2.13705 1.42186,-3.43438c0,-1.29747 -0.5049,-2.51715 -1.42186,-3.43438c-0.91692,-0.91738 -2.13603,-1.42256 -3.43262,-1.42256c-1.29674,0 -2.51584,0.50519 -3.43277,1.42256c-0.91692,0.91738 -1.42186,2.13691 -1.42186,3.43438c0,1.29733 0.5049,2.517 1.42186,3.43438s2.136,1.42256 3.43277,1.42256zm3.1229,-21.45639l-19.2674,0l0,22.17929l7.46275,0l0,2.44371l-7.6507,0c-1.24318,0 -2.2546,-1.01199 -2.2546,-2.25576l0,-22.55519c0,-1.24377 1.01142,-2.25562 2.2546,-2.25562l19.64329,0c1.24318,0 2.25446,1.01185 2.25446,2.25562l0,8.49405l-2.44241,0l0,-8.3061zm-12.87657,18.64667l-2.95848,0c-0.6734,0 -1.22126,-0.54817 -1.22126,-1.22186s0.54786,-1.22186 1.22126,-1.22186l2.95848,0c0.6734,0 1.22126,0.54817 1.22126,1.22186s-0.54783,1.22186 -1.22126,1.22186zm-4.17974,-13.5362c0,-0.67369 0.54786,-1.22186 1.22126,-1.22186l10.99597,0c0.6734,0 1.22126,0.54817 1.22126,1.22186s-0.54786,1.22186 -1.22126,1.22186l-10.99597,0c-0.6734,0 -1.22126,-0.54817 -1.22126,-1.22186zm0,6.35918c0,-0.67369 0.54786,-1.22186 1.22126,-1.22186l4.33214,0c0.67326,0 1.22112,0.548 1.22126,1.22171c0,0.67383 -0.54786,1.222 -1.22126,1.222l-4.33214,0c-0.6734,0 -1.22126,-0.54814 -1.22126,-1.22186z"/>
 </g>
</svg>