<svg width="80" height="80" xmlns="http://www.w3.org/2000/svg">
 <g>
  <title>Layer 1</title>
  <!-- Created with Method Draw - http://github.com/duopixel/Method-Draw/ -->
  <g stroke="null" id="svg_1">
   <path stroke="null" id="svg_2" d="m49.99392,21.87133a19.09478,19.30524 0 0 0 -4.11329,-6.15417a19.10467,19.31525 0 0 0 -13.56174,-5.66654l-2.68118,0a19.08736,19.29774 0 0 0 -7.46724,1.52291a19.09478,19.30524 0 0 0 -6.0945,4.14363a18.95132,19.1602 0 0 0 -4.10587,6.15167a18.95379,19.1627 0 0 0 -1.50878,7.53455l0,21.18075a19.07746,19.28774 0 0 0 5.61466,13.68872c1.76107,1.77548 3.80906,3.17586 6.09945,4.15113a19.06509,19.27524 0 0 0 7.46972,1.52541l2.67871,0a19.13682,19.34776 0 0 0 13.56669,-5.67154a19.03047,19.24023 0 0 0 4.11329,-6.15667c1.00421,-2.38565 1.50878,-4.91884 1.50878,-7.53455l0,-21.18575a19.17392,19.38527 0 0 0 -1.51868,-7.52955zm-20.8979,-7.97717l0,9.50258l3.72991,0l0,-9.50508c8.38736,0.82272 14.94686,7.95716 14.94686,16.63952l0,9.48007l-14.94686,0l0,-2.39065l-3.72991,0l0,2.39065l-14.91223,0l0,-9.48007a16.5521,16.73455 0 0 1 14.9147,-16.63452l-0.00247,-0.0025zm2.10982,52.2842l-0.44769,0c-9.15164,0 -16.56942,-7.48453 -16.56942,-16.71704l0,-5.68905l33.58405,0l0,5.68905c0,9.23251 -7.4153,16.71704 -16.56694,16.71704z" fill="#bfbfbf" p-id="76327" data-spm-anchor-id="a313x.search_index.0.i95.11323a81iL1ho7"/>
   <path stroke="null" id="svg_3" d="m30.96098,21.20615a5.60476,5.66654 0 0 0 -5.60476,5.65404l0,7.47203a5.60476,5.66654 0 0 0 11.20952,0l0,-7.46453a5.60476,5.66654 0 0 0 -5.60476,-5.66404l0,0.0025zm22.89394,-0.03001c0.27455,0.27507 0.72224,0.27507 0.99679,0l4.06135,-4.09611l0,19.1452l3.72744,0l0,-19.1477l4.06135,4.09611c0.27208,0.27507 0.72224,0.27507 0.99431,0l1.6374,-1.65045a0.70492,0.71269 0 0 0 0,-1.00527l-8.05592,-8.13721a0.7074,0.71519 0 0 0 -0.99679,0l-8.06334,8.13471a0.70492,0.71269 0 0 0 0,1.00527l1.6374,1.65545zm13.83629,37.60021a0.7074,0.71519 0 0 0 -0.99679,0l-4.05888,4.09861l0,-4.39869l0.00495,-14.734l-3.72744,0l-0.00742,14.734l0,4.39869l-4.05888,-4.09861a0.7074,0.71519 0 0 0 -0.99679,0l-1.64235,1.65045a0.70492,0.71269 0 0 0 0,1.00777l8.06334,8.13471c0.27208,0.27507 0.71976,0.27507 0.99431,0l8.06334,-8.13471a0.70492,0.71269 0 0 0 0,-1.00527l-1.6374,-1.65045l0,-0.0025z" fill="#005FBF" p-id="76328" data-spm-anchor-id="a313x.search_index.0.i96.11323a81iL1ho7"/>
  </g>
 </g>

</svg>