<svg width="32" height="32" xmlns="http://www.w3.org/2000/svg" class="icon">

 <g>
  <title>background</title>
  <rect fill="none" id="canvas_background" height="34" width="34" y="-1" x="-1"/>
 </g>
 <g>
  <title>Layer 1</title>
  <g stroke="null" id="svg_21">
   <g stroke="null" id="svg_19">
    <path stroke="null" id="svg_1" fill="#bfbfbf" d="m24.963649,9.48578a9.005047,9.005047 0 0 0 -1.939818,-2.87065a9.009713,9.009713 0 0 0 -6.395683,-2.643191l-1.264439,0a9.001548,9.001548 0 0 0 -3.521533,0.710372a9.005047,9.005047 0 0 0 -2.87415,1.932819a8.937393,8.937393 0 0 0 -1.936318,2.869484a8.938559,8.938559 0 0 0 -0.711539,3.514535l0,9.87989a8.996882,8.996882 0 0 0 2.647857,6.385185c0.830517,0.828184 1.796344,1.4814 2.876483,1.936318a8.99105,8.99105 0 0 0 3.5227,0.711539l1.263273,0a9.024877,9.024877 0 0 0 6.398016,-2.645524a8.974719,8.974719 0 0 0 1.939818,-2.871817c0.473581,-1.1128 0.711539,-2.294421 0.711539,-3.514535l0,-9.882223a9.042374,9.042374 0 0 0 -0.716205,-3.512202zm-9.855394,-3.720997l0,4.432536l1.759017,0l0,-4.433703c3.955455,0.383764 7.048899,3.711666 7.048899,7.761604l0,4.422038l-7.048899,0l0,-1.115133l-1.759017,0l0,1.115133l-7.032569,0l0,-4.422038a7.80593,7.80593 0 0 1 7.033735,-7.759271l-0.001166,-0.001166zm0.994988,24.388281l-0.211129,0c-4.31589,0 -7.814095,-3.491205 -7.814095,-7.797764l0,-2.653689l15.838152,0l0,2.653689c0,4.306559 -3.497038,7.797764 -7.812928,7.797764z"/>
    <path stroke="#f22424" id="svg_11" d="m16.860575,15.781256c0,0 2.628685,0 2.628685,0" opacity="0.5" stroke-opacity="0" stroke-width="null" fill="none"/>
    <path stroke="#f22424" id="svg_13" d="m18.634039,10.769188l0.026392,4.017048c-0.477285,3.26439 -4.870342,3.173178 -5.298001,0.08257l-0.022859,-3.867618c0.061611,-3.000402 4.659842,-3.755711 5.294468,-0.231999z" stroke-opacity="0" stroke-width="null" fill="#005fbf"/>
   </g>
   <g stroke="null" id="svg_20">
    <path stroke="null" id="svg_16" d="m5.016189,2.939569l2.815726,-2.805564c0.07275,-0.056836 0.194089,-0.06593 0.287299,0l0.592459,0.591856c0.07957,0.07275 0.086993,0.228793 0.016517,0.315184l-1.414182,1.413154l6.510554,0.008314l-0.001041,1.281213l-6.509179,-0.000955l1.410369,1.415984c0.067338,0.0945 0.063657,0.198772 0.015914,0.282891l-0.6082,0.614429c-0.107265,0.067006 -0.179813,0.089343 -0.300534,0.016935l-2.78937,-2.792031c-0.096038,-0.096845 -0.11094,-0.216679 -0.026332,-0.341409z" stroke-opacity="null" stroke-width="null" fill="#005fbf"/>
    <path stroke="null" id="svg_17" d="m26.983697,3.270014l-2.817713,2.803569c-0.07279,0.056784 -0.194135,0.065792 -0.287299,-0.000204l-0.592039,-0.592275c-0.079519,-0.072806 -0.086831,-0.228855 -0.016294,-0.315196l1.415183,-1.412152l-6.510547,-0.012926l0.001949,-1.281212l6.509177,0.005566l-1.409365,-1.416983c-0.067271,-0.094548 -0.063516,-0.198817 -0.015714,-0.282902l0.608635,-0.613998c0.107312,-0.06693 0.179876,-0.089215 0.300546,-0.016722l2.787392,2.794006c0.09597,0.096913 0.110786,0.216758 0.026091,0.341428z" stroke-opacity="null" stroke-width="null" fill="#005fbf"/>
   </g>
  </g>
 </g>
</svg>