<?xml version="1.0" standalone="no"?><!DOCTYPE svg PUBLIC "-//W3C//DTD SVG 1.1//EN" "http://www.w3.org/Graphics/SVG/1.1/DTD/svg11.dtd"><svg t="1731847288642" class="icon" viewBox="0 0 1280 1024" version="1.1" xmlns="http://www.w3.org/2000/svg" p-id="65796" width="20" height="16" xmlns:xlink="http://www.w3.org/1999/xlink"><path d="M1032.576 185.941333l108.629333-47.872a91.605333 91.605333 0 0 1 86.528 6.784c25.941333 16.682667 41.6 45.354667 41.6 76.074667v582.144c0 30.72-15.658667 59.392-41.6 76.074667-25.856 16.64-58.410667 19.2-86.528 6.784l-108.629333-47.872v25.941333c0 82.517333-67.328 149.333333-150.314667 149.333333H161.024C78.08 1013.333333 10.666667 946.517333 10.666667 864V160c0-82.517333 67.413333-149.333333 150.357333-149.333333H882.346667c82.944 0 150.272 66.816 150.272 149.333333v25.941333z m-64-25.941333c0-47.061333-38.570667-85.333333-86.314667-85.333333H161.024c-47.786667 0-86.357333 38.272-86.357333 85.333333v704c0 47.061333 38.613333 85.333333 86.357333 85.333333h721.237333c47.786667 0 86.314667-38.272 86.314667-85.333333v-124.032l44.928 19.754667 153.514667 67.626666c8.490667 3.754667 18.304 2.986667 26.026666-2.005333a26.538667 26.538667 0 0 0 12.288-22.272V220.928a26.538667 26.538667 0 0 0-12.245333-22.272 27.605333 27.605333 0 0 0-26.069333-2.005333l-198.4 87.381333V160z" fill="#005FBF" p-id="65797" data-spm-anchor-id="a313x.search_index.0.i44.4f753a81tF5mVv" class="selected"></path><path d="M426.666667 328.533333v366.933334a29.866667 29.866667 0 0 0 16.128 26.325333 30.976 30.976 0 0 0 31.232-1.450667l280.405333-183.466666A29.781333 29.781333 0 0 0 768 512a29.781333 29.781333 0 0 0-13.568-24.917333L474.026667 303.658667a30.976 30.976 0 0 0-31.232-1.450667A29.866667 29.866667 0 0 0 426.666667 328.533333z" fill="#1afa29" p-id="65798" data-spm-anchor-id="a313x.search_index.0.i42.4f753a81tF5mVv" class=""></path></svg>