<?xml version="1.0" standalone="no"?><!DOCTYPE svg PUBLIC "-//W3C//DTD SVG 1.1//EN" "http://www.w3.org/Graphics/SVG/1.1/DTD/svg11.dtd"><svg t="1731854605884" class="icon" viewBox="0 0 1024 1024" version="1.1" xmlns="http://www.w3.org/2000/svg" p-id="74779" width="32" height="32" xmlns:xlink="http://www.w3.org/1999/xlink"><path d="M509.952 401.408l-77.824-26.624c30.72-94.208 81.92-153.6 151.552-169.984 36.864-8.192 92.16-67.584 92.16-102.4h81.92c0 73.728-81.92 165.888-153.6 182.272-38.912 10.24-71.68 47.104-94.208 116.736z" fill="#304ECE" opacity=".3" p-id="74780" data-spm-anchor-id="a313x.search_index.0.i62.4f753a81tF5mVv" class=""></path><path d="M143.36 348.16h737.28c45.056 0 81.92 36.864 81.92 81.92v409.6c0 45.056-36.864 81.92-81.92 81.92H143.36c-45.056 0-81.92-36.864-81.92-81.92V430.08c0-45.056 36.864-81.92 81.92-81.92z m184.32 81.92c-12.288 0-20.48 8.192-20.48 20.48v40.96c0 12.288 8.192 20.48 20.48 20.48h40.96c12.288 0 20.48-8.192 20.48-20.48v-40.96c0-12.288-8.192-20.48-20.48-20.48h-40.96z m-163.84 0c-12.288 0-20.48 8.192-20.48 20.48v40.96c0 12.288 8.192 20.48 20.48 20.48h40.96c12.288 0 20.48-8.192 20.48-20.48v-40.96c0-12.288-8.192-20.48-20.48-20.48H163.84z m81.92 163.84c-12.288 0-20.48 8.192-20.48 20.48v40.96c0 12.288 8.192 20.48 20.48 20.48h40.96c12.288 0 20.48-8.192 20.48-20.48v-40.96c0-12.288-8.192-20.48-20.48-20.48h-40.96z m163.84 0c-12.288 0-20.48 8.192-20.48 20.48v40.96c0 12.288 8.192 20.48 20.48 20.48h40.96c12.288 0 20.48-8.192 20.48-20.48v-40.96c0-12.288-8.192-20.48-20.48-20.48h-40.96z m163.84 0c-12.288 0-20.48 8.192-20.48 20.48v40.96c0 12.288 8.192 20.48 20.48 20.48h40.96c12.288 0 20.48-8.192 20.48-20.48v-40.96c0-12.288-8.192-20.48-20.48-20.48h-40.96z m163.84 0c-12.288 0-20.48 8.192-20.48 20.48v40.96c0 12.288 8.192 20.48 20.48 20.48h40.96c12.288 0 20.48-8.192 20.48-20.48v-40.96c0-12.288-8.192-20.48-20.48-20.48h-40.96z m-245.76-163.84c-12.288 0-20.48 8.192-20.48 20.48v40.96c0 12.288 8.192 20.48 20.48 20.48h40.96c12.288 0 20.48-8.192 20.48-20.48v-40.96c0-12.288-8.192-20.48-20.48-20.48h-40.96zM245.76 757.76c-12.288 0-20.48 8.192-20.48 20.48v40.96c0 12.288 8.192 20.48 20.48 20.48h532.48c12.288 0 20.48-8.192 20.48-20.48v-40.96c0-12.288-8.192-20.48-20.48-20.48H245.76z m409.6-327.68c-12.288 0-20.48 8.192-20.48 20.48v40.96c0 12.288 8.192 20.48 20.48 20.48h40.96c12.288 0 20.48-8.192 20.48-20.48v-40.96c0-12.288-8.192-20.48-20.48-20.48h-40.96z m163.84 0c-12.288 0-20.48 8.192-20.48 20.48v40.96c0 12.288 8.192 20.48 20.48 20.48h40.96c12.288 0 20.48-8.192 20.48-20.48v-40.96c0-12.288-8.192-20.48-20.48-20.48h-40.96z" fill="#005FBF" p-id="74781" data-spm-anchor-id="a313x.search_index.0.i60.4f753a81tF5mVv" class=""></path></svg>